<svg xmlns="http://www.w3.org/2000/svg" viewBox="0 0 23.54 60.36"><defs><style>.cls-1{fill:#fff;}</style></defs><title>Asset 16f_fiber_white</title><g id="Layer_2" data-name="Layer 2"><g id="Layer_1-2" data-name="Layer 1"><g id="white_imagery_text" data-name="white imagery + text"><path class="cls-1" d="M10.93,38.8l1.35-.1-.13,21.41c-.82.65-1.81-.12-2.33-.54Z"/><path class="cls-1" d="M0,28.89c.57,3.64,4.79,13.63,9,10.26C12.9,35.5,3.57,28.52,0,28.89Z"/><path class="cls-1" d="M1.35,19c-.24,3.89,4.93,13.36,9.07,10.75C14.24,26.14,5.33,18.24,1.35,19Z"/><path class="cls-1" d="M4,8.8c0,2.75,1.8,13.37,6.88,10.87C14.07,15.6,11.19,15.18,4,8.8Z"/><path class="cls-1" d="M13.3,0c-2.06,1.69-5.85,9.84-.85,11.25C16.61,11.93,15.49,3.28,13.3,0Z"/><path class="cls-1" d="M20.9,9.14c-3.19,1.19-9.73,7-7.46,9.79C18,22.8,20.94,12.37,20.9,9.14Z"/><path class="cls-1" d="M23,19.47c-3.6,1.58-12.88,4.78-9.49,9.74C19.2,33.72,21.28,22.75,23,19.47Z"/><path class="cls-1" d="M23.54,29.63C17.85,31.89,10,35.22,14.26,39.7S22.92,32.56,23.54,29.63Z"/></g></g></g></svg>