<svg xmlns="http://www.w3.org/2000/svg" viewBox="0 0 44.32 42.41"><defs><style>.cls-1{fill:none;stroke:#fff;stroke-miterlimit:10;stroke-width:0.75px;}.cls-2{fill:#fff;}</style></defs><title>Asset 66f_food_white</title><g id="Layer_2" data-name="Layer 2"><g id="Layer_1-2" data-name="Layer 1"><g id="white_imagery_text" data-name="white imagery + text"><path class="cls-1" d="M18,.38c4.6,0,21.5,6.59,21.87,20.88,4.6,2.11,7.33,9.69-3.11,11.8C34.14,38,16,45.22,7.13,40.48-3.35,34.6-3,2.74,18,.38Z"/><path class="cls-2" d="M11.53,15.41C10,12.55,8.92,5.72,12.28,5,14.76,4.85,14.14,10.69,11.53,15.41Z"/><path class="cls-2" d="M13.85,16.73c0-1.74,1.29-9.69,4.77-8C20.22,9.63,19,12.76,13.85,16.73Z"/><path class="cls-2" d="M14.51,19.14c2.16-1.62,5.43-6.49,6.15-2.33C20.41,19,21.17,22.24,14.51,19.14Z"/><path class="cls-2" d="M13.68,21.81c3.23.84,6,1.32,3.9,6.9C16.15,31.5,14.52,28.85,13.68,21.81Z"/><path class="cls-2" d="M11.67,25.17C11.13,27.75,7.55,36,12.46,35,14.86,34.37,14.24,29.27,11.67,25.17Z"/><path class="cls-2" d="M9.54,25.65c-2,.87-6.3,4.48-4.33,8.33C6.71,35.84,9,33.72,9.54,25.65Z"/><path class="cls-2" d="M10.08,21.62c-2.65-1.49-6.63-3.21-6.63,1.86C3.45,26.61,5.72,28.3,10.08,21.62Z"/><path class="cls-2" d="M11,18.77c-.32-3.11-1.74-7.45-4.22-5.72C5.39,14.12,3.12,17.15,11,18.77Z"/></g></g></g></svg>