<svg xmlns="http://www.w3.org/2000/svg" viewBox="0 0 89.56 89.56"><defs><style>.cls-1{fill:#5f5353;}.cls-2,.cls-3{fill:none;stroke:#fff;stroke-miterlimit:10;}.cls-2{stroke-width:1.5px;}.cls-3{stroke-width:0.75px;}.cls-4{fill:#fff;}</style></defs><title>Asset 146f_fun_gray</title><g id="Layer_2" data-name="Layer 2"><g id="Layer_1-2" data-name="Layer 1"><g id="background_circles" data-name="background circles"><circle class="cls-1" cx="45.19" cy="44.75" r="40.25"/></g><circle class="cls-2" cx="44.78" cy="44.78" r="44.03"/><g id="white_imagery_text" data-name="white imagery + text"><path class="cls-3" d="M66.61,47.92l-3-.92-2.76-7-1.38-7.7h3.47A22,22,0,0,1,66.61,47.92Z"/><circle class="cls-3" cx="45.19" cy="44.71" r="21.66"/><path class="cls-3" d="M35.86,25.16l1.09,2.65-5.29,6.43L25.8,39.42l-1.27-1.23C25,34.35,30.74,27.06,35.86,25.16Z"/><path class="cls-3" d="M51.82,24.09v2.46l-6.63,2.3-8.24-1-1.09-2.65C37.87,22.87,47.8,22.32,51.82,24.09Z"/><path class="cls-3" d="M62.93,32.29H59.47l-7.64-5.74V24.09C57.38,25.6,59.74,29,62.93,32.29Z"/><path class="cls-3" d="M57.84,62.29,58.78,54l4.83-7,3,.92C66.7,51.82,62.1,59.9,57.84,62.29Z"/><path class="cls-4" d="M49.29,66l-6.71-3.69,1.26-7.65,8.5-4.43L58.78,54l-.94,8.29C57.13,62.78,53.39,65.59,49.29,66Z"/><path class="cls-3" d="M32.55,62.29l.61-1.39,9.42,1.39L49.29,66C46.6,67.1,37.24,66.37,32.55,62.29Z"/><path class="cls-3" d="M23.95,48.93l1.05-1,5.17,5.17,3,7.81-.61,1.39C29.57,60.49,24,53.09,23.95,48.93Z"/><path class="cls-3" d="M25.8,39.42,25,47.92Z"/><polygon class="cls-4" points="31.66 34.24 36.95 40.1 35.86 49.3 30.17 53.09 25 47.92 25.8 39.41 31.66 34.24"/><polygon class="cls-3" points="45.19 35.74 36.95 40.1 31.66 34.24 36.95 27.81 45.19 28.84 45.19 35.74"/><polygon class="cls-4" points="53.38 41.48 45.19 35.74 45.19 28.84 51.82 26.55 59.47 32.29 60.84 39.99 53.38 41.48"/><polygon class="cls-3" points="52.34 50.22 53.38 41.48 60.84 39.99 63.6 47 58.78 54.01 52.34 50.22"/><polygon class="cls-3" points="35.86 49.3 43.84 54.65 42.58 62.29 33.16 60.9 30.17 53.09 35.86 49.3"/></g></g></g></svg>