<svg xmlns="http://www.w3.org/2000/svg" xmlns:xlink="http://www.w3.org/1999/xlink" viewBox="0 0 1047.06 1035.51"><defs><style>.cls-1,.cls-4{fill:none;}.cls-2{clip-path:url(#clip-path);}.cls-3{fill:#fff;}.cls-4{stroke:#e47343;stroke-miterlimit:10;stroke-width:3px;}.cls-5{fill:#e47343;}</style><clipPath id="clip-path" transform="translate(0 -0.54)"><rect class="cls-1" x="502.38" y="67.11" width="619.32" height="485.98" transform="translate(503.4 1122.69) rotate(-90.1)"/></clipPath></defs><title>Asset 11aboutus_team_circle</title><g id="Layer_2" data-name="Layer 2"><g id="Layer_1-2" data-name="Layer 1"><g class="cls-2"><ellipse class="cls-3" cx="523.53" cy="518.29" rx="523.53" ry="517.75" transform="translate(-0.92 0.4) rotate(-0.1)"/></g><line class="cls-4" x1="601.92" y1="341.89" x2="925.64" y2="341.89"/><path class="cls-5" d="M718.53,408.67c-5.08,0-9.47-2.42-11.63-5.95a11.59,11.59,0,0,0-5.05,9.57c0,.39,0,.77.06,1.15V435.5H725V413.44c0-.38.06-.76.06-1.15a11.55,11.55,0,0,0-1-4.67A15.17,15.17,0,0,1,718.53,408.67Z" transform="translate(0 -0.54)"/><path class="cls-5" d="M776.55,408.67c5.08,0,9.47-2.42,11.63-5.95a11.59,11.59,0,0,1,5.05,9.57c0,.39,0,.77-.06,1.15V435.5H770.08V413.44c0-.38-.06-.76-.06-1.15a11.55,11.55,0,0,1,1-4.67A15.17,15.17,0,0,0,776.55,408.67Z" transform="translate(0 -0.54)"/><circle class="cls-5" cx="775.1" cy="389.28" r="11.6"/><circle class="cls-5" cx="718.53" cy="389.28" r="11.6"/><circle class="cls-5" cx="747.54" cy="386.38" r="13.05"/><path class="cls-5" d="M767.85,407.37a6.44,6.44,0,0,0-6.3-6.53h-3.07a16.27,16.27,0,0,1-23.32,0h-1.62a6.44,6.44,0,0,0-6.3,6.53v3.47c0,.07,0,.14,0,.21h0v30h40.61V411h0c0-.07,0-.14,0-.21Z" transform="translate(0 -0.54)"/></g></g></svg>