<svg xmlns="http://www.w3.org/2000/svg" viewBox="0 0 85.26 85.26"><defs><style>.cls-1,.cls-3{fill:none;stroke:#fff;stroke-miterlimit:10;}.cls-1{stroke-width:1.5px;}.cls-2{fill:#5f5353;}.cls-4{fill:#fff;}</style></defs><title>Asset 58aboutus_values_gray</title><g id="Layer_2" data-name="Layer 2"><g id="Layer_1-2" data-name="Layer 1"><circle class="cls-1" cx="42.63" cy="42.63" r="41.88"/><circle class="cls-2" cx="42.63" cy="42.63" r="37.57"/><path class="cls-3" d="M42.62,29.06c0-.84-2.07-2.62-2.7-3.18a11.63,11.63,0,0,0-3.58-2.18,13.45,13.45,0,0,0-10.86.62,15.55,15.55,0,0,0-5.77,5.85,18.28,18.28,0,0,0-.6,15.33c2,4.41,5.63,7.9,9.24,11,1.41,1.21,2.85,2.38,4.28,3.55,2.75,2.27,5.44,4.85,8,7.38l2,2,2-2,4-4L54.74,58c2.56-2.27,5.33-4.38,7.65-6.88a20.79,20.79,0,0,0,3.13-4.56,18,18,0,0,0,2-8.72,18.25,18.25,0,0,0-.66-5.68C65.36,27.71,61,23.72,56.27,23a14.2,14.2,0,0,0-9.1,2,15.6,15.6,0,0,0-2.46,1.89c-.39.36-.75.74-1.11,1.13C43.43,28.24,42.62,28.82,42.62,29.06Z"/><path class="cls-4" d="M23.19,38.44a5.44,5.44,0,0,1,.06-2.19,8.9,8.9,0,0,1,1.48-3.72A9.52,9.52,0,0,1,29,29.46a15.8,15.8,0,0,1,2.87-.88c.68-.13,1.69-.41,2,.52.39,1.38-1.32,1.21-2.07,1.31a6.43,6.43,0,0,0-1.7.62A9.62,9.62,0,0,0,27,33.25a7.44,7.44,0,0,0-1.69,3.07c-.2.75,0,2.94-1.26,2.86A.9.9,0,0,1,23.19,38.44Z"/></g></g></svg>