<svg xmlns="http://www.w3.org/2000/svg" viewBox="0 0 84.64 47.16"><defs><style>.cls-1{fill:none;stroke:#fff;stroke-miterlimit:10;}.cls-2{fill:#fff;}</style></defs><title>Asset 51aboutus_vision_white</title><g id="Layer_2" data-name="Layer 2"><g id="Layer_1-2" data-name="Layer 1"><path class="cls-1" d="M.53,23.37a5.29,5.29,0,0,1,.14-1.86c.87-3.3,4.88-5.62,7.45-7.52A89,89,0,0,1,18.54,7.31c7-3.82,14.88-6.67,23-6.8,13-.21,23,6.1,33.08,13.38,1.79,1.29,3.61,2.58,5.33,4,1.39,1.13,3.5,2.43,4.06,4.22a4.13,4.13,0,0,1,0,2.06c-1.22,5.91-8.76,9.93-13.33,13C61.17,43.6,48.82,48,37.23,46.28a60.26,60.26,0,0,1-21.94-7.92A48.14,48.14,0,0,1,2.49,27.78,8.62,8.62,0,0,1,.53,23.37Z"/><path class="cls-2" d="M42.63,9.23A14.35,14.35,0,1,0,57,23.58,14.35,14.35,0,0,0,42.63,9.23Zm0,24.51a9.93,9.93,0,1,1,3-19.38A3.7,3.7,0,0,0,51,18.53a9.91,9.91,0,0,1-8.39,15.21Z"/></g></g></svg>