<svg xmlns="http://www.w3.org/2000/svg" viewBox="0 0 89.56 89.56"><defs><style>.cls-1{fill:#5f5353;}.cls-2,.cls-4,.cls-5{fill:none;}.cls-2,.cls-4{stroke:#fff;}.cls-2,.cls-4,.cls-5,.cls-6,.cls-7{stroke-miterlimit:10;}.cls-2{stroke-width:1.5px;}.cls-3{fill:#fff;}.cls-5,.cls-6,.cls-7{stroke:#5f5253;}.cls-5,.cls-7{stroke-linecap:round;}.cls-6{fill:#5f5253;}.cls-7{fill:#f37343;}</style></defs><title>Asset 136f_farmaceuticals_gray</title><g id="Layer_2" data-name="Layer 2"><g id="Layer_1-2" data-name="Layer 1"><g id="background_circles" data-name="background circles"><circle class="cls-1" cx="45.19" cy="44.75" r="40.25"/></g><circle class="cls-2" cx="44.78" cy="44.78" r="44.03"/><g id="white_imagery_text" data-name="white imagery + text"><path class="cls-3" d="M47.84,62.26H59.45s6.86,0,6.86-7.86c0-7.59-6.4-7.59-6.4-7.59h-12Z"/><path class="cls-4" d="M36.14,62.39h23.4s6.85,0,6.85-7.86c0-7.59-6.4-7.59-6.4-7.59H36.14s-6.85,0-6.85,7.59C29.29,62.39,36.14,62.39,36.14,62.39Z"/><line class="cls-5" x1="50.49" y1="59.81" x2="58.17" y2="59.81"/><line class="cls-5" x1="60.46" y1="59.81" x2="61.01" y2="59.81"/><path class="cls-3" d="M44,44.33l8-8.4s4.73-5-1-10.39c-5.49-5.24-9.91-.6-9.91-.6l-8.26,8.67Z"/><path class="cls-6" d="M33.36,33.14l-8,8.4s-4.73,5,1,10.38c5.49,5.23,9.91.6,9.91.6l8.26-8.67Z"/><path class="cls-4" d="M36,52.9,52.17,36s4.73-5-1-10.39c-5.49-5.24-9.91-.6-9.91-.6L24.85,42.24s-4.73,5,.76,10.2C31.3,57.86,36,52.9,36,52.9Z"/><line class="cls-7" x1="44.49" y1="40.83" x2="49.79" y2="35.27"/><line class="cls-5" x1="51.56" y1="33.4" x2="51.83" y2="33.12"/></g></g></g></svg>