<svg xmlns="http://www.w3.org/2000/svg" viewBox="0 0 49.23 44.81"><defs><style>.cls-1,.cls-2{fill:none;}.cls-1{stroke:#fff;stroke-miterlimit:10;}.cls-3{fill:#fff;}</style></defs><title>Asset 306fs_farmaceuticals_white</title><g id="Layer_2" data-name="Layer 2"><g id="Layer_1-2" data-name="Layer 1"><path class="cls-1" d="M41.65,27.22H21.41L15.14,33.8a7.82,7.82,0,0,1-7.44,2c.11,8.5,7.57,8.51,7.57,8.51H41.15s7.58,0,7.58-8.69C48.73,27.22,41.65,27.22,41.65,27.22Z"/><path class="cls-1" d="M15,33.48,32.82,14.75s5.23-5.49-1.06-11.49c-6.08-5.79-11-.67-11-.67L2.59,21.69S-2.64,27.18,3.44,33C9.73,39,15,33.48,15,33.48Z"/><rect class="cls-2" x="35.46" y="12.76" width="0.82" height="1.37" rx="0.29" ry="0.29" transform="translate(18.96 -20.93) rotate(43.25)"/><path class="cls-3" d="M31.76,3.26c-6.08-5.79-11-.67-11-.67l-9.14,9.59L24,24l8.86-9.29S38.05,9.26,31.76,3.26ZM31,14.06l-5.86,6.23a.45.45,0,0,1-.63,0l-.15-.14a.45.45,0,0,1,0-.63l5.86-6.23a.45.45,0,0,1,.63,0l.15.14A.45.45,0,0,1,31,14.06Zm1.73-1.73a.55.55,0,0,1-.8-.75l.3-.32A.55.55,0,1,1,33,12Z"/><path class="cls-3" d="M48.85,35.59c0-8.39-7.12-8.36-7.12-8.36l-13.25.06,0,17.09,12.84-.06S48.89,44.29,48.85,35.59Zm-8.31,6.94-8.55.1a.45.45,0,0,1-.45-.44V42a.45.45,0,0,1,.44-.45l8.55-.1a.45.45,0,0,1,.45.44v.21A.45.45,0,0,1,40.54,42.53Zm2.44.05a.55.55,0,0,1,0-1.1h.44a.55.55,0,1,1,0,1.1Z"/></g></g></svg>