<svg xmlns="http://www.w3.org/2000/svg" viewBox="0 0 89.56 89.56"><defs><style>.cls-1{fill:#5f5353;}.cls-2{fill:#fff;}.cls-3{fill:none;stroke:#fff;stroke-miterlimit:10;stroke-width:1.5px;}</style></defs><title>Asset 86f_fiber_gray</title><g id="Layer_2" data-name="Layer 2"><g id="Layer_1-2" data-name="Layer 1"><g id="background_circles" data-name="background circles"><circle class="cls-1" cx="45.19" cy="44.75" r="40.25"/></g><g id="white_imagery_text" data-name="white imagery + text"><path class="cls-2" d="M43.56,53.72l1.22-.09L44.66,73c-.74.59-1.64-.11-2.11-.48Z"/><path class="cls-2" d="M33.68,44.76C34.19,48.05,38,57.08,41.85,54,45.35,50.73,36.91,44.43,33.68,44.76Z"/><path class="cls-2" d="M34.9,35.81c-.22,3.51,4.45,12.08,8.2,9.72C46.56,42.27,38.5,35.13,34.9,35.81Z"/><path class="cls-2" d="M37.29,26.6c0,2.49,1.63,12.09,6.22,9.82C46.4,32.74,43.8,32.36,37.29,26.6Z"/><path class="cls-2" d="M45.7,18.64c-1.86,1.53-5.29,8.89-.77,10.17C48.7,29.43,47.68,21.61,45.7,18.64Z"/><path class="cls-2" d="M52.57,26.91c-2.88,1.07-8.79,6.31-6.74,8.85C50,39.26,52.61,29.82,52.57,26.91Z"/><path class="cls-2" d="M54.43,36.24c-3.26,1.43-11.64,4.32-8.58,8.81C51,49.13,52.92,39.2,54.43,36.24Z"/><path class="cls-2" d="M55,45.42c-5.15,2-12.22,5.06-8.39,9.11S54.4,48.08,55,45.42Z"/></g><circle class="cls-3" cx="44.78" cy="44.78" r="44.03"/></g></g></svg>