<svg xmlns="http://www.w3.org/2000/svg" viewBox="0 0 98.91 98.91"><defs><style>.cls-1{fill:#5f5353;}.cls-2,.cls-4{fill:none;stroke:#fff;stroke-miterlimit:10;}.cls-2{stroke-width:0.75px;}.cls-3{fill:#fff;}.cls-4{stroke-width:1.5px;}</style></defs><title>Asset 76f_food_gray</title><g id="Layer_2" data-name="Layer 2"><g id="Layer_1-2" data-name="Layer 1"><g id="background_circles" data-name="background circles"><circle class="cls-1" cx="49.45" cy="49.11" r="44.52"/></g><g id="white_imagery_text" data-name="white imagery + text"><path class="cls-2" d="M46.37,25.51c5.09,0,23.78,7.28,24.19,23.09,5.09,2.34,8.11,10.72-3.44,13.06-2.89,5.5-22.92,13.46-32.77,8.22C22.76,63.37,23.14,28.12,46.37,25.51Z"/><path class="cls-3" d="M39.22,42.14C37.57,39,36.33,31.42,40,30.59,42.79,30.46,42.11,36.92,39.22,42.14Z"/><path class="cls-3" d="M41.78,43.6c0-1.92,1.42-10.72,5.27-8.8C48.84,35.75,47.51,39.2,41.78,43.6Z"/><path class="cls-3" d="M42.52,46.26c2.38-1.79,6-7.17,6.8-2.57C49,46.16,49.89,49.7,42.52,46.26Z"/><path class="cls-3" d="M41.6,49.22c3.57.93,6.67,1.45,4.31,7.63C44.33,59.93,42.53,57,41.6,49.22Z"/><path class="cls-3" d="M39.37,52.93c-.6,2.86-4.55,12,.87,10.88C42.9,63.11,42.22,57.47,39.37,52.93Z"/><path class="cls-3" d="M37,53.46c-2.17,1-7,5-4.79,9.21C33.89,64.73,36.45,62.4,37,53.46Z"/><path class="cls-3" d="M37.62,49c-2.93-1.65-7.33-3.55-7.33,2.06C30.29,54.53,32.8,56.4,37.62,49Z"/><path class="cls-3" d="M38.62,45.85c-.36-3.44-1.93-8.25-4.66-6.32C32.43,40.71,29.92,44.06,38.62,45.85Z"/></g><circle class="cls-4" cx="49.45" cy="49.45" r="48.7"/></g></g></svg>