<svg xmlns="http://www.w3.org/2000/svg" viewBox="0 0 44.06 44.16"><defs><style>.cls-1{fill:none;stroke:#fff;stroke-miterlimit:10;stroke-width:0.75px;}.cls-2{fill:#fff;}</style></defs><title>Asset 56f_fun_white</title><g id="Layer_2" data-name="Layer 2"><g id="Layer_1-2" data-name="Layer 1"><g id="white_imagery_text" data-name="white imagery + text"><path class="cls-1" d="M43.45,25.25l-3-.92-2.76-7-1.38-7.7h3.47A22,22,0,0,1,43.45,25.25Z"/><circle class="cls-1" cx="22.03" cy="22.04" r="21.66"/><path class="cls-1" d="M12.7,2.49l1.09,2.65L8.5,11.58,2.64,16.75,1.38,15.52C1.84,11.68,7.58,4.39,12.7,2.49Z"/><path class="cls-1" d="M28.66,1.42V3.88L22,6.18l-8.24-1L12.7,2.49C14.71.2,24.64-.34,28.66,1.42Z"/><path class="cls-1" d="M39.77,9.62H36.31L28.66,3.88V1.42C34.22,2.93,36.58,6.28,39.77,9.62Z"/><path class="cls-1" d="M34.68,39.62l.94-8.29,4.83-7,3,.92C43.54,29.15,38.94,37.23,34.68,39.62Z"/><path class="cls-2" d="M26.13,43.31l-6.71-3.69L20.68,32l8.5-4.43,6.43,3.79-.94,8.29C34,40.11,30.23,42.92,26.13,43.31Z"/><path class="cls-1" d="M9.39,39.62,10,38.23l9.42,1.39,6.71,3.69C23.44,44.43,14.07,43.7,9.39,39.62Z"/><path class="cls-1" d="M.79,26.26l1.05-1L7,30.42l3,7.81-.61,1.39C6.41,37.82.85,30.42.79,26.26Z"/><path class="cls-1" d="M2.64,16.75l-.8,8.51Z"/><polygon class="cls-2" points="8.5 11.58 13.79 17.43 12.7 26.63 7.01 30.42 1.84 25.25 2.64 16.75 8.5 11.58"/><polygon class="cls-1" points="22.03 13.07 13.79 17.43 8.5 11.58 13.79 5.14 22.03 6.18 22.03 13.07"/><polygon class="cls-2" points="30.22 18.81 22.03 13.07 22.03 6.18 28.66 3.88 36.3 9.62 37.68 17.32 30.22 18.81"/><polygon class="cls-1" points="29.18 27.55 30.22 18.81 37.68 17.32 40.44 24.33 35.62 31.34 29.18 27.55"/><polygon class="cls-1" points="12.7 26.63 20.68 31.98 19.42 39.62 10 38.23 7.01 30.42 12.7 26.63"/></g></g></g></svg>