<svg xmlns="http://www.w3.org/2000/svg" viewBox="0 0 44.65 43.56"><defs><style>.cls-1,.cls-3{fill:none;stroke:#fff;stroke-miterlimit:10;}.cls-2{fill:#fff;}.cls-3{stroke-width:1.25px;}</style></defs><title>Asset 34getinvolved_education_white</title><g id="Layer_2" data-name="Layer 2"><g id="Layer_1-2" data-name="Layer 1"><path class="cls-1" d="M22.44,3.49s0-3-3.48-3H1.43V38.71H20.09s2.28.18,2.28,1.81c0,0,.61-1.81,2.24-1.81H43.27V.5H25.88S22.44.5,22.44,3.49Z"/><line class="cls-1" x1="25.25" y1="24.31" x2="38.74" y2="24.31"/><line class="cls-1" x1="25.25" y1="28.05" x2="38.74" y2="28.05"/><line class="cls-1" x1="25.25" y1="31.79" x2="38.74" y2="31.79"/><line class="cls-1" x1="25.25" y1="13.09" x2="38.74" y2="13.09"/><line class="cls-1" x1="25.25" y1="16.83" x2="38.74" y2="16.83"/><line class="cls-1" x1="25.25" y1="20.57" x2="38.74" y2="20.57"/><rect class="cls-2" x="6.42" y="7.05" width="11.48" height="7.6"/><line class="cls-3" x1="0.63" y1="2.68" x2="0.63" y2="39.21"/><line class="cls-3" x1="44.02" y1="2.68" x2="44.02" y2="39.21"/><line class="cls-3" x1="44.65" y1="39.82" y2="39.82"/><ellipse class="cls-2" cx="22.32" cy="40.5" rx="3.27" ry="1.24"/></g></g></svg>