<svg xmlns="http://www.w3.org/2000/svg" viewBox="0 0 85.26 85.26"><defs><style>.cls-1{fill:none;stroke:#fff;stroke-miterlimit:10;stroke-width:1.5px;}.cls-2{fill:#5f5353;}.cls-3{fill:#fff;}</style></defs><title>Asset 39getinvolved_legislators_gray</title><g id="Layer_2" data-name="Layer 2"><g id="Layer_1-2" data-name="Layer 1"><circle class="cls-1" cx="42.63" cy="42.63" r="41.88"/><circle class="cls-2" cx="42.43" cy="42.39" r="37.57"/><path class="cls-3" d="M33,26.07l14.9,6.17a1,1,0,0,0,1.56-.48c.55-1.14,1.07-2.51,1.07-2.51a1.14,1.14,0,0,0-.66-1.49C48.83,27.25,35,21.56,35,21.56a1.18,1.18,0,0,0-1.52.62,23.34,23.34,0,0,0-.94,2.18S31.89,25.6,33,26.07Z"/><path class="cls-3" d="M25,45.51l14.9,6.17a1,1,0,0,0,1.56-.48c.55-1.14,1.07-2.51,1.07-2.51a1.14,1.14,0,0,0-.66-1.49C40.83,46.69,27,41,27,41a1.18,1.18,0,0,0-1.52.62,23.73,23.73,0,0,0-.94,2.18S23.88,45,25,45.51Z"/><path class="cls-3" d="M67.37,44.44,45.22,37.32l1.6-3.83L33.1,27.76,28.18,39.85l13.65,5.56,1.69-4L64.46,52.3s5.59,2.6,7-1.64S67.37,44.44,67.37,44.44Z"/><path class="cls-3" d="M45.3,60.17V57.74a1.49,1.49,0,0,0-1.46-1.25H22a1.49,1.49,0,0,0-1.45,1.25v2.43a1.79,1.79,0,0,0-1.8,1.94A1.67,1.67,0,0,0,20,63.77H45.85a1.67,1.67,0,0,0,1.25-1.66A1.78,1.78,0,0,0,45.3,60.17Z"/></g></g></svg>