<svg xmlns="http://www.w3.org/2000/svg" viewBox="0 0 52.95 42.29"><defs><style>.cls-1{fill:#fff;}</style></defs><title>Asset 32getinvolved_legislators_white</title><g id="Layer_2" data-name="Layer 2"><g id="Layer_1-2" data-name="Layer 1"><path class="cls-1" d="M14.28,4.59l14.9,6.17a1,1,0,0,0,1.56-.48c.55-1.14,1.07-2.51,1.07-2.51a1.14,1.14,0,0,0-.66-1.49C30.08,5.77,16.22.08,16.22.08A1.18,1.18,0,0,0,14.7.71a23.34,23.34,0,0,0-.94,2.18S13.14,4.11,14.28,4.59Z"/><path class="cls-1" d="M6.27,24l14.9,6.17a1,1,0,0,0,1.56-.48c.55-1.14,1.07-2.51,1.07-2.51a1.14,1.14,0,0,0-.66-1.49c-1.07-.51-14.94-6.2-14.94-6.2a1.18,1.18,0,0,0-1.52.62,23.74,23.74,0,0,0-.94,2.18S5.13,23.56,6.27,24Z"/><path class="cls-1" d="M48.62,23,26.47,15.84,28.07,12,14.35,6.28,9.43,18.37l13.65,5.56,1.69-4L45.71,30.82s5.59,2.6,7-1.64S48.62,23,48.62,23Z"/><path class="cls-1" d="M26.55,38.69V36.26A1.49,1.49,0,0,0,25.09,35H3.26A1.49,1.49,0,0,0,1.8,36.26v2.43A1.79,1.79,0,0,0,0,40.63a1.67,1.67,0,0,0,1.25,1.66H27.1a1.67,1.67,0,0,0,1.25-1.66A1.78,1.78,0,0,0,26.55,38.69Z"/></g></g></svg>