<svg xmlns="http://www.w3.org/2000/svg" viewBox="0 0 56.72 32"><defs><style>.cls-1{fill:#fff;}</style></defs><title>Asset 35getinvolved_donation_white</title><g id="Layer_2" data-name="Layer 2"><g id="Layer_1-2" data-name="Layer 1"><path class="cls-1" d="M29.1,3.26c-20.78-5-29.1,0-29.1,0v27.8a43.59,43.59,0,0,1,28.36-.93c18.41,5.61,28.36-3.26,28.36-3.26V0S43.15,6.62,29.1,3.26Zm9.16,14.4c-.68,6.07-4.91,10.58-9.45,10.07s-7.67-5.85-7-11.92S26.74,5.24,31.28,5.75,38.95,11.59,38.26,17.66Z"/><path class="cls-1" d="M33.14,19.53A3.05,3.05,0,0,1,30,22.21l-.1.89-1.35-.15.1-.89a4.91,4.91,0,0,1-2.82-2l1.54-1.53A3.39,3.39,0,0,0,29.5,20a1.06,1.06,0,0,0,1.31-.86c.2-1.83-4.42-1.88-4-5.3a3,3,0,0,1,3-2.57l.11-.95,1.35.15-.1.93a4.92,4.92,0,0,1,2.5,1.7l-1.45,1.53a3.2,3.2,0,0,0-1.86-1.17c-.68-.07-1.16.25-1.22.78C29,15.91,33.55,16.14,33.14,19.53Z"/></g></g></svg>