<svg xmlns="http://www.w3.org/2000/svg" viewBox="0 0 85.26 85.26"><defs><style>.cls-1,.cls-5{fill:none;}.cls-1,.cls-4,.cls-5{stroke:#fff;stroke-miterlimit:10;}.cls-1{stroke-width:1.5px;}.cls-2{fill:#5f5353;}.cls-3{fill:#fff;}.cls-4{fill:#e47343;}</style></defs><title>Asset 43getinvolved_education_gray</title><g id="Layer_2" data-name="Layer 2"><g id="Layer_1-2" data-name="Layer 1"><circle class="cls-1" cx="42.63" cy="42.63" r="41.88"/><circle class="cls-2" cx="42.69" cy="42.49" r="37.57"/><path class="cls-3" d="M64.78,26V62.49H45.95s-.17,1.57-3.53,1.57S39,62.73,39,62.73H19.75V26Z"/><path class="cls-4" d="M42.51,25.7s0-3-3.48-3H21.5V60.92H40.16s2.28.18,2.28,1.81c0,0,.61-1.81,2.24-1.81H63.34V22.71H45.95S42.51,22.71,42.51,25.7Z"/><line class="cls-5" x1="45.32" y1="46.52" x2="58.81" y2="46.52"/><line class="cls-5" x1="45.32" y1="50.26" x2="58.81" y2="50.26"/><line class="cls-5" x1="45.32" y1="54" x2="58.81" y2="54"/><line class="cls-5" x1="45.32" y1="35.3" x2="58.81" y2="35.3"/><line class="cls-5" x1="45.32" y1="39.04" x2="58.81" y2="39.04"/><line class="cls-5" x1="45.32" y1="42.78" x2="58.81" y2="42.78"/><rect class="cls-3" x="26.49" y="29.26" width="11.48" height="7.6"/></g></g></svg>