<svg xmlns="http://www.w3.org/2000/svg" viewBox="0 0 80.05 80.05"><defs><style>.cls-1{fill:none;stroke-width:1.5px;}.cls-1,.cls-4,.cls-5{stroke:#fff;}.cls-1,.cls-5{stroke-miterlimit:10;}.cls-2,.cls-4,.cls-5{fill:#5f5353;}.cls-3,.cls-6{fill:#fff;}.cls-4,.cls-6{stroke-linecap:round;stroke-linejoin:round;}.cls-4,.cls-5{stroke-width:0.75px;}.cls-6{stroke:#2f62a2;stroke-width:1.16px;}</style></defs><title>Asset 28soils101_soilhealth_pink</title><g id="Layer_2" data-name="Layer 2"><g id="Layer_1-2" data-name="Layer 1"><circle class="cls-1" cx="40.03" cy="40.03" r="39.28"/><circle class="cls-2" cx="40.03" cy="40.03" r="34.99"/><polyline class="cls-3" points="44.94 22.79 32.04 65.51 47.12 23.51 44.94 22.79 47.12 23.51 44.94 22.79"/><path class="cls-3" d="M43.64,25.17l-.71,2.5a3.54,3.54,0,0,1-3.38-1.22c-1.53-1.71-.28-2.79-.28-2.79a4.39,4.39,0,0,1-2.79-2,4,4,0,0,1,0-3,26.27,26.27,0,0,1-5.86,1.74c-3.18.53-5.45.42-6-.89a48.64,48.64,0,0,0,9.32-1.7s5.12-1.74,7.65-.28,1.56,3.25,1.56,3.25S43,21.5,41.79,22a1.27,1.27,0,0,0-.67,1.7S41.28,24.64,43.64,25.17Z"/><path class="cls-3" d="M36.82,23.34a35.81,35.81,0,0,1-3.69,1.55,2.3,2.3,0,0,0,2.7.21A9.45,9.45,0,0,0,38,23.94,6,6,0,0,1,36.82,23.34Z"/><line class="cls-3" x1="38.02" y1="23.9" x2="36.92" y2="23.29"/><path class="cls-3" d="M35.53,21.85a19.78,19.78,0,0,1-5.45,1.57,3.5,3.5,0,0,0,3.39.44c1.78-.52,2.6-.81,2.86-.91A3.36,3.36,0,0,1,35.53,21.85Z"/><line class="cls-3" x1="38.02" y1="23.9" x2="36.92" y2="23.29"/><path class="cls-3" d="M35.34,19.79a31.29,31.29,0,0,1-7.69,1.94s1,1.36,4.28.55a23,23,0,0,0,3.41-1A3.44,3.44,0,0,1,35.34,19.79Z"/><path class="cls-3" d="M46.75,26.2l-.91,2.44a3.54,3.54,0,0,0,3.44,1c2.25-.46,1.89-2.08,1.89-2.08a4.39,4.39,0,0,0,3.41.08,4,4,0,0,0,1.77-2.46A26.27,26.27,0,0,0,60,30.09c2.25,2.31,4.13,3.58,5.38,2.87a48.64,48.64,0,0,1-6.49-6.91s-3.09-4.44-6-4.77S49.74,23,49.74,23a2.09,2.09,0,0,0,.4,1.75,1.27,1.27,0,0,1-.47,1.76S49,27.17,46.75,26.2Z"/><path class="cls-3" d="M53.32,28.77a35.81,35.81,0,0,0,2,3.44s-1.32.27-2.3-1.44a9.45,9.45,0,0,1-1-2.19A6,6,0,0,0,53.32,28.77Z"/><path class="cls-3" d="M55.24,28.34a19.78,19.78,0,0,0,3.45,4.5,3.5,3.5,0,0,1-3-1.66c-1.12-1.48-1.61-2.2-1.76-2.43A3.36,3.36,0,0,0,55.24,28.34Z"/><path class="cls-3" d="M56.62,26.8a31.29,31.29,0,0,0,5,6.13s-1.59.52-3.77-2.1A23,23,0,0,1,55.73,28,3.44,3.44,0,0,0,56.62,26.8Z"/><path class="cls-4" d="M43.91,37.61l1.28-.2a5.47,5.47,0,0,0,2.28-.93,2.77,2.77,0,0,0,.67-4.25,3.28,3.28,0,0,0-2.54-1.08c-.61,0-.79.3-.62.83a2.62,2.62,0,0,0,2.32,1.72c0,.69-.33,1.29-1.35,1.66a10.3,10.3,0,0,1-2.33.33c-1.12,0-.79,0-1.92,0"/><path class="cls-3" d="M46.2,22.66a1.78,1.78,0,1,0-1.15-2.26A1.8,1.8,0,0,0,46.2,22.66Z"/><path class="cls-5" d="M35.72,57.94c-.26-.5-.59-1-.8-1.45.23-.14.65-.3.92-.47a1.47,1.47,0,0,0,.33-2.51c-.56-.65-1.13-1.29-1.67-2a5,5,0,0,1-1.23-4.26,3.28,3.28,0,0,1,1.84-2.71A11.81,11.81,0,0,1,36.59,44a.35.35,0,0,1,.31.07c.48.57,1,1.14,1.43,1.73-.47.18-.93.34-1.37.53a2.17,2.17,0,0,0-.85,3.4c.46.63,1,1.22,1.46,1.82a6,6,0,0,1,1.25,2.24,2.93,2.93,0,0,1-1.61,3.5C36.75,57.54,36.26,57.71,35.72,57.94Z"/><path class="cls-5" d="M38.4,52.76a6.32,6.32,0,0,0,3.28-2.54,3.39,3.39,0,0,0,.09-3.63,9.32,9.32,0,0,0-1-1.39c-.62-.74-1.32-1.43-1.93-2.18a7.15,7.15,0,0,1-1.08-1.67,2.18,2.18,0,0,1,1.18-3A9.17,9.17,0,0,1,40.5,38a2.83,2.83,0,0,1,.38-.11c-.74-.67-1.33-1.26-2.08-1.93-.16.05-.48.12-.65.18a4.08,4.08,0,0,0-2.38,6.16,19.4,19.4,0,0,0,1.35,1.91c.71,1,1.5,1.84,2.13,2.85a2.17,2.17,0,0,1-1.34,3.39c-.3.09-.72.24-1,.33C36.89,50.73,37.71,51.76,38.4,52.76Z"/><path class="cls-6" d="M38.05,30.47"/><path class="cls-4" d="M38.34,30.74a1.65,1.65,0,0,0,.1,2.13,10.3,10.3,0,0,0,1.68,1.65c.88.7,1.84,1.3,2.72,2a7.1,7.1,0,0,1,1.79,2.16A4,4,0,0,1,43,44.24a18.21,18.21,0,0,1-2.19.91l-1.62-1.79a8.21,8.21,0,0,0,1.18-.31,5.85,5.85,0,0,0,1.42-.77,2.15,2.15,0,0,0,.57-2.67A5.13,5.13,0,0,0,41,38c.08.07-2.11-1.92-3.17-3a5.47,5.47,0,0,1-1.28-2.1,2.77,2.77,0,0,1,2-3.81,3.28,3.28,0,0,1,2.69.64c.49.36.45.71,0,1A2.62,2.62,0,0,1,38.34,30.74Z"/><path class="cls-5" d="M36,53.3c-1.44.37-2,1.09-1.42,2.42.44,1,1,2,1.49,3a2.65,2.65,0,0,1,.26,1.87A2.69,2.69,0,0,1,35,62.23c.14-.28.27-.55.41-.81a1.93,1.93,0,0,0-.11-2.06c-.33-.51-.76-1-1.12-1.44a20,20,0,0,1-1.49-2.09,2.93,2.93,0,0,1,1.06-4c.18-.12.47-.32.66-.42Z"/><path class="cls-5" d="M33.48,57a3.34,3.34,0,0,0-2.41,2.4,2.39,2.39,0,0,0,.3,1.62c-.06-1.86,1.29-2.64,3-2.9C34.32,58.15,34.06,57.77,33.48,57Z"/></g></g></svg>