<svg xmlns="http://www.w3.org/2000/svg" viewBox="0 0 62.73 36.62"><defs><style>.cls-1{fill:#fff;}</style></defs><title>Asset 16soils101_biology_white</title><g id="Layer_2" data-name="Layer 2"><g id="Layer_1-2" data-name="Layer 1"><path class="cls-1" d="M34.76,0S28.91,0,28.5,5.93c-.11,1.52,3.16,1.29,5,1,.15,2.51.64,11.94-.19,14.43,0,0-.07.66,1.76.6s2.19-1.18,2.19-1.18S38,19.39,35.89,6.94c1.81.26,5.2.54,5.12-1C40.72.21,34.76,0,34.76,0Z"/><path class="cls-1" d="M43.47,10a3.8,3.8,0,0,1,3.81,3.61c.06.93-1.93.79-3,.63-.09,1.53-.39,7.28.11,8.79,0,0,0,.4-1.07.36s-1.34-.72-1.34-.72-.46-.86.84-8.45c-1.11.16-3.17.33-3.12-.62C39.83,10.1,43.47,10,43.47,10Z"/><path class="cls-1" d="M36.42,32.37s1.5-1.34,1.27-2.14c-.33-1.09-1.85-.78-1.85-.78s-1.52.6-1.45-1.5c.06-1.76-1.16-1.52-1.16-1.52a.92.92,0,0,0-1,.8c-.48,1.81-1.81,1.09-1.81,1.09a1.64,1.64,0,0,0-2,.22c-1.12,1.59.83,3,.83,3,1.09.94.07,1.38.07,1.38s-1.05.51-.36,2.1,2.1,0,2.1,0a2.53,2.53,0,0,1,3.37.25s1.7,1.95,2.61,1.23c1.2-.94-.4-2.68-.4-2.68C35.63,32.88,36.42,32.37,36.42,32.37Zm-2.8,0a1,1,0,1,1-.92-1.64,1,1,0,1,1,.92,1.64Z"/><path class="cls-1" d="M.07,22.74s1.35-4.69,5.81-4.3a8.31,8.31,0,0,1,5.2,3s2.05,2.44,3.51.79c1.15-1.3.42-3.84.42-3.84a12.38,12.38,0,0,1-.48-3.85,3.88,3.88,0,0,1,4.17-3.58c6.4.16,3.21,8.07,3.21,8.07s-1.57,3.52,1.21,3.39c3.18-.15,1.81-3.57,1.81-3.57s-1-2.21-.54-3.51c.42-1.14,1.75.73,1.75.73s4.39,6.44-1.09,8.59c-3.09,1.21-5.51-.56-5.87-2.76a7.27,7.27,0,0,1,.58-3.75s1.59-4-.95-4.44c-2.93-.49-1.75,3.87-1.75,3.87s1.87,4.54-1.52,6.78S9.32,23,9.32,23,7.57,21,6.18,21A4.35,4.35,0,0,0,2.25,23.1s-.79,1.09-1.82.54A.66.66,0,0,1,.07,22.74Z"/><path class="cls-1" d="M62.73,23.9a3.24,3.24,0,0,1-.6-1.23,2.43,2.43,0,0,1-1-.41,2.54,2.54,0,0,0-.83-1.1c.08-1.31-.76-1.35-.76-1.35a5.9,5.9,0,0,0-8-2.78s-2.19,1.07-2.27,2.54a4.9,4.9,0,0,0,1.39,3,6.83,6.83,0,0,0,.95,1,.82.82,0,0,1-.87.22A4.51,4.51,0,0,0,50,25.48s.6-1.18,1-1.18a1.34,1.34,0,0,0,1.15,0s.08.71.36.87a6.63,6.63,0,0,0,.76,2.07A4.57,4.57,0,0,0,52.72,25c-.56-.65-.2-.56-.2-.56a.41.41,0,0,0,.59.06,4.48,4.48,0,0,0,.81.27,6,6,0,0,0,2.65-.06c.14.35.32,1,.05,1.32a14.86,14.86,0,0,0-1,1.6s2.3-1.35,1.32-3a6.16,6.16,0,0,0,.75-.27,5.38,5.38,0,0,0,1.4.6,3.28,3.28,0,0,0,.39,1.26A4,4,0,0,0,60,27.6,5.12,5.12,0,0,0,59.6,25a.68.68,0,0,0,.63-.38,2.94,2.94,0,0,0,.16-2,1.24,1.24,0,0,0,.57.1l.14,0c-.08,1.05-.16,1.9-.16,1.9l.44-.68a3.5,3.5,0,0,0,0-1.2c1.26.11.92,2.95.92,2.95A4.79,4.79,0,0,0,62.73,23.9Z"/></g></g></svg>