<svg xmlns="http://www.w3.org/2000/svg" viewBox="0 0 41.92 41.63"><defs><style>.cls-1,.cls-2{fill:#fff;}.cls-1{stroke:#fff;stroke-miterlimit:10;stroke-width:0.75px;}</style></defs><title>Asset 19soils101_genesis_white</title><g id="Layer_2" data-name="Layer 2"><g id="Layer_1-2" data-name="Layer 1"><line class="cls-1" x1="21.02" y1="19.39" x2="28.37" y2="28.39"/><line class="cls-1" x1="21.02" y1="19.39" x2="13.7" y2="28.34"/><line class="cls-1" x1="21.02" y1="32.42" x2="21.02" y2="6.49"/><circle class="cls-2" cx="21.02" cy="6.94" r="6.94"/><circle class="cls-2" cx="21.02" cy="19.39" r="3.53"/><path class="cls-2" d="M26,33.89a7.7,7.7,0,0,1,1.35-4.36,6.89,6.89,0,0,0-12.58,0,7.69,7.69,0,0,1,.86,7.05,6.88,6.88,0,0,0,10.86,0A7.7,7.7,0,0,1,26,33.89Z"/><circle class="cls-2" cx="34.32" cy="34.03" r="7.6"/><circle class="cls-2" cx="7.6" cy="33.89" r="7.6"/></g></g></svg>