<svg xmlns="http://www.w3.org/2000/svg" viewBox="0 0 80.05 80.05"><defs><style>.cls-1{fill:none;stroke:#fff;stroke-miterlimit:10;stroke-width:1.5px;}.cls-2{fill:#e06572;}.cls-3{fill:#fff;}</style></defs><title>Asset 27soils101_nutrition_pink</title><g id="Layer_2" data-name="Layer 2"><g id="Layer_1-2" data-name="Layer 1"><circle class="cls-1" cx="40.03" cy="40.03" r="39.28"/><circle class="cls-2" cx="40.03" cy="39.83" r="34.99"/><path class="cls-3" d="M42.62,32.28l0,.1Z"/><path class="cls-3" d="M42.93,31.66l-.31.62Z"/><path class="cls-3" d="M42.57,32.38l-.08.16Z"/><path class="cls-3" d="M42.49,32.54l0,0Z"/><path class="cls-3" d="M53.86,28.81a7.14,7.14,0,0,0-2.13.94,12.35,12.35,0,0,0-3.46,3.47,20.4,20.4,0,0,0-2.22,4.43,22.44,22.44,0,0,0-1.25,4.11,3.85,3.85,0,0,0,.08,2,.41.41,0,0,1-.12.51,9.67,9.67,0,0,1-4.19,2.55c-.3.09-.3.09-.35-.24A19.57,19.57,0,0,1,40.37,40a24.85,24.85,0,0,1,2.09-7.41v0a12.66,12.66,0,0,1,.63-1.23l-.15.3.15-.3c.28-.49.58-1,.84-1.34a.22.22,0,0,1,.28-.12,1.49,1.49,0,0,0,1-.15,4.72,4.72,0,0,0,1.64-1.4A6.89,6.89,0,0,0,48.45,25a6.45,6.45,0,0,0,0-2.54A5.35,5.35,0,0,0,47.14,20l-.08-.11H47c-.27.64-.54,1.28-.83,1.91L45,24c-.51,1-1,2-1.44,3a4,4,0,0,0-.36,1.42,1.65,1.65,0,0,0,.16.82c.05.1.1.11.18,0a20.55,20.55,0,0,0,2.69-3.87,9.47,9.47,0,0,0,.42-1,.35.35,0,0,1,.09-.17c.05.06,0,.12,0,.17a11,11,0,0,1-1.29,2.73c-.67,1.06-1.44,2-2.18,3a19,19,0,0,0-1.14,1.92h0l-.23.46h0a13.4,13.4,0,0,0-.77,1.88.16.16,0,0,1-.08-.14c-.23-1.22-.55-2.41-.9-3.59-.52-1.77-1.1-3.53-1.49-5.35a16.37,16.37,0,0,1-.41-4.47c0-.08,0-.18.08-.23a.52.52,0,0,1,0,.28,14.05,14.05,0,0,0,.07,1.6,30.54,30.54,0,0,0,1.79,6.78c.06.17.13.18.26.07a2.45,2.45,0,0,0,.64-1.06,6,6,0,0,0,.23-2.17c-.07-1.65-.29-3.28-.49-4.91l-.46-3.67c-.08-1-.13-2.06-.19-3.1l-.09,0-.17.11a8,8,0,0,0-3,2.8,9.59,9.59,0,0,0-1.36,3.52,10.24,10.24,0,0,0,.54,5.44,7,7,0,0,0,1.57,2.78,2.21,2.21,0,0,0,1.35.73c.2,0,.28.11.33.31.42,1.81.75,3.63,1,5.48a2.1,2.1,0,0,1-.11,1.07,30.7,30.7,0,0,0-1.08,3.53c0,.06,0,.15-.07.16s-.09-.07-.13-.12c-.21-.26-.4-.53-.61-.78a43,43,0,0,0-3.61-3.67,30.61,30.61,0,0,1-2.6-2.71,10.52,10.52,0,0,1-2.09-3.78,6.92,6.92,0,0,1-.22-1.08.1.1,0,0,1,0,.06,9.43,9.43,0,0,0,2.17,4.28,41.53,41.53,0,0,0,4.28,4c.12.11.19.08.24-.08a2.52,2.52,0,0,0,0-1.27,6.54,6.54,0,0,0-1.13-2.41c-.81-1.19-1.68-2.31-2.53-3.46a16.49,16.49,0,0,1-1.41-2.16,19.13,19.13,0,0,1-1.26-3.38c-.1-.33-.12-.34-.35-.11A7.49,7.49,0,0,0,27.8,30.2a8.68,8.68,0,0,0,2,4.58,9.74,9.74,0,0,0,3.43,2.78,2.67,2.67,0,0,0,2.47.1c.09,0,.15,0,.21.07l.55.61a19.45,19.45,0,0,1,2.29,3.05.73.73,0,0,1,.11.51,21,21,0,0,0-.27,2.53,27.34,27.34,0,0,0,.29,4.75c0,.31,0,.32-.25.25a21,21,0,0,1-2.05-.62,17.68,17.68,0,0,1-5.43-3.08,14.12,14.12,0,0,1-4.94-8.62,14.9,14.9,0,0,1-.2-1.85l0,.07c0,.06,0,.11,0,.17a14,14,0,0,0,3.56,8.25A14.84,14.84,0,0,0,33,46.54c.2.12.24.09.25-.15a2.76,2.76,0,0,0-.15-1A9.17,9.17,0,0,0,32,43.15a31.33,31.33,0,0,1-3.73-7.63,51.66,51.66,0,0,1-1.49-5.82c0-.13,0-.34-.14-.37s-.21.15-.29.26a12.37,12.37,0,0,0-2.56,7.5,12,12,0,0,0,2.35,7.29,9.09,9.09,0,0,0,4.21,3.43,2.51,2.51,0,0,0,2.28-.08c.11-.07.19,0,.28,0,.39.24.77.49,1.16.72a21.59,21.59,0,0,0,4.79,2c.14,0,.25.08.28.28.33,2.08.7,4.44.84,6.55,0,.6.06,1.36.08,2.05,0,0,0,.15,0,.4l-.49-.33a42.28,42.28,0,0,0-4.49-2.34,30.08,30.08,0,0,1-3.25-1.75,10.34,10.34,0,0,1-3.1-2.9,6.81,6.81,0,0,1-.53-.94.09.09,0,0,1,.05,0,9.27,9.27,0,0,0,3.32,3.34,40.81,40.81,0,0,0,5.22,2.49c.14.06.2,0,.2-.14a2.48,2.48,0,0,0-.34-1.2,6.43,6.43,0,0,0-1.78-1.91c-1.11-.87-2.27-1.65-3.41-2.48a16.21,16.21,0,0,1-2-1.59,18.8,18.8,0,0,1-2.2-2.78c-.19-.28-.22-.28-.36,0A7.36,7.36,0,0,0,26.86,54a8.53,8.53,0,0,0,3.27,3.68,9.57,9.57,0,0,0,4,1.56,2.62,2.62,0,0,0,2.34-.65c.07-.07.15,0,.22,0l.7.41A20.62,20.62,0,0,1,40,60.77a18.19,18.19,0,0,1-.46,4.06c-.54,1.85,2.56-.22,2.56-.22s0-4.17-.15-6.71h0v-.26c.87-1.09,1.77-2.16,2.73-3.17a.27.27,0,0,1,.36-.09,1.83,1.83,0,0,0,1.28,0,5.82,5.82,0,0,0,2.29-1.34,8.5,8.5,0,0,0,2.65-3.68,8,8,0,0,0,.49-3.09,6.6,6.6,0,0,0-1-3.27l-.08-.15-.07,0c-.47.72-.93,1.44-1.42,2.14l-1.86,2.44c-.83,1.08-1.66,2.17-2.4,3.32a5,5,0,0,0-.74,1.65,2,2,0,0,0,0,1c0,.13.1.16.21.06a25.33,25.33,0,0,0,4.1-4.12,11.67,11.67,0,0,0,.72-1.11.43.43,0,0,1,.15-.19c.05.08,0,.14,0,.2a13.58,13.58,0,0,1-2.15,3c-1,1.14-2.18,2.16-3.29,3.21-.7.66-1.38,1.34-2,2.07-.06-.65-.14-1.36-.26-2.26-.28-2.07-.74-4.09-1.15-6.14-.06-.32-.07-.32.21-.42a10.48,10.48,0,0,0,4.69-3.27A19.18,19.18,0,0,0,48,40.29c.83-1.77,1.51-3.6,2.29-5.39.31-.69.62-1.38,1-2-.86,1.85-1.52,3.79-2.25,5.7a24.52,24.52,0,0,1-3.1,6.12c-.1.14-.08.23.07.28l.22,0A2.54,2.54,0,0,0,48,44.42a7.7,7.7,0,0,0,2-2.19,23.28,23.28,0,0,0,3.12-8.51c.28-1.56.6-3.11,1-4.64C54.19,28.77,54.16,28.73,53.86,28.81Z"/><path class="cls-3" d="M42.47,32.58v0Z"/></g></g></svg>