<svg xmlns="http://www.w3.org/2000/svg" viewBox="0 0 39.01 42.76"><defs><style>.cls-1{fill:#fff;}</style></defs><title>Asset 16soils101_chemistry_white</title><g id="Layer_2" data-name="Layer 2"><g id="Layer_1-2" data-name="Layer 1"><path class="cls-1" d="M23.81,30.29a2.66,2.66,0,0,0-2.33.14,1.59,1.59,0,0,0-.37-2.07,1.55,1.55,0,0,0-1.9,0,1.53,1.53,0,0,0-.38,1.87,1.58,1.58,0,0,0,2,.72A2.62,2.62,0,0,0,21,34.55a2.58,2.58,0,0,0,4.07-3.06A2.5,2.5,0,0,0,23.81,30.29Z"/><path class="cls-1" d="M26.84,25.7a.88.88,0,0,0-.89.88.89.89,0,1,0,1.79,0A.88.88,0,0,0,26.84,25.7Z"/><path class="cls-1" d="M9.1,23.53a1.74,1.74,0,0,0-1.52.09,1,1,0,0,0-.24-1.35,1,1,0,0,0-1.24,0,1,1,0,0,0-.25,1.22,1,1,0,0,0,1.3.47,1.71,1.71,0,0,0,.14,2.32,1.69,1.69,0,0,0,2.66-2A1.63,1.63,0,0,0,9.1,23.53Z"/><path class="cls-1" d="M11.08,20.54a.57.57,0,0,0-.58.57.58.58,0,1,0,1.17,0A.58.58,0,0,0,11.08,20.54Z"/><path class="cls-1" d="M38.46,34.76l-.07-.14L29.12,17.43a1.11,1.11,0,0,1-.13-.51q0-7.34,0-14.68V1.92c.66-.08.81-.26.81-.89,0-.07,0-.15,0-.22,0-.59-.21-.8-.8-.8-3,0-5.92,0-8.87,0-.83,0-1.08.14-1,1,0,.65.14.81.8.89,0,.07,0,.14,0,.2q0,7.45,0,14.9a.85.85,0,0,1-.1.39l-3,5.56-4.22-7.82a.73.73,0,0,1-.08-.33q0-4.79,0-9.59V5c.43-.06.53-.17.53-.58,0,0,0-.1,0-.14,0-.39-.14-.52-.52-.52H6.69c-.54,0-.71.09-.68.68,0,.42.09.53.52.58,0,0,0,.09,0,.13q0,4.87,0,9.73a.56.56,0,0,1-.07.25L1.21,24.88.38,26.41l0,0a3.64,3.64,0,0,0,3.23,5.23h8.5l-.36.67L10.46,34.7l0,.06a5.58,5.58,0,0,0,4.94,8H33.47a5.58,5.58,0,0,0,5-8ZM26.2,3.41a1.73,1.73,0,0,1,0-.32.63.63,0,0,1,.61-.5.63.63,0,0,1,.65.49,2.27,2.27,0,0,1,0,.41q0,3.12,0,6.24t0,6.37c0,.49-.24.76-.65.76a.63.63,0,0,1-.65-.6c0-.07,0-.15,0-.22Q26.2,9.73,26.2,3.41ZM10.66,6a1.13,1.13,0,0,1,0-.21.41.41,0,0,1,.4-.32.41.41,0,0,1,.42.32,1.48,1.48,0,0,1,0,.27q0,2,0,4.08t0,4.16c0,.32-.16.5-.42.5a.41.41,0,0,1-.42-.39s0-.1,0-.14Q10.66,10.1,10.66,6Zm1.25,25H4.05a3.07,3.07,0,0,1-2.75-4.43h0v0l.06-.12.09-.16,2.45-4.52L5.6,18.67l.11-.2a5.52,5.52,0,0,0,1.81.39,5.39,5.39,0,0,0,3-.88l.85-.51.2-.11a1,1,0,0,1,1.61.51l1.44,2.74,1.71,3.25L12.45,31Zm20.9,10.72H16.08a4.7,4.7,0,0,1-4.21-6.79h0l0,0,.1-.18.13-.24,3.76-6.92,2.57-4.72.17-.31a8.45,8.45,0,0,0,2.77.6,8.26,8.26,0,0,0,4.54-1.34L27.23,21l.31-.17a1.55,1.55,0,0,1,2.46.78l2.21,4.2,3.42,6.5h0l.09.17,1.44,2.74a4.7,4.7,0,0,1-4.34,6.48Z"/></g></g></svg>