<svg xmlns="http://www.w3.org/2000/svg" viewBox="0 0 30.38 51.14"><defs><style>.cls-1{fill:#fff;}</style></defs><title>Asset 17soils101_nutrition_white</title><g id="Layer_2" data-name="Layer 2"><g id="Layer_1-2" data-name="Layer 1"><path class="cls-1" d="M18.86,17.82l0,.1Z"/><path class="cls-1" d="M19.17,17.2l-.31.62Z"/><path class="cls-1" d="M18.81,17.92l-.08.16Z"/><path class="cls-1" d="M18.73,18.08l0,0Z"/><path class="cls-1" d="M30.09,14.35a7.14,7.14,0,0,0-2.13.94,12.35,12.35,0,0,0-3.46,3.47,20.4,20.4,0,0,0-2.22,4.43A22.44,22.44,0,0,0,21,27.3a3.85,3.85,0,0,0,.08,2,.41.41,0,0,1-.12.51,9.67,9.67,0,0,1-4.19,2.55c-.3.09-.3.09-.35-.24a19.57,19.57,0,0,1,.15-6.62,24.85,24.85,0,0,1,2.09-7.41v0a12.66,12.66,0,0,1,.63-1.23l-.15.3.15-.3c.28-.49.58-1,.84-1.34a.22.22,0,0,1,.28-.12,1.49,1.49,0,0,0,1-.15,4.72,4.72,0,0,0,1.64-1.4,6.89,6.89,0,0,0,1.59-3.32,6.45,6.45,0,0,0,0-2.54,5.35,5.35,0,0,0-1.26-2.47l-.08-.11h-.06c-.27.64-.54,1.28-.83,1.91L21.27,9.58c-.51,1-1,2-1.44,3A4,4,0,0,0,19.47,14a1.65,1.65,0,0,0,.16.82c.05.1.1.11.18,0A20.55,20.55,0,0,0,22.5,11a9.47,9.47,0,0,0,.42-1A.35.35,0,0,1,23,9.79c.05.06,0,.12,0,.17a11,11,0,0,1-1.29,2.73c-.67,1.06-1.44,2-2.18,3a19,19,0,0,0-1.14,1.92h0l-.23.46h0A13.4,13.4,0,0,0,17.4,20a.16.16,0,0,1-.08-.14c-.23-1.22-.55-2.41-.9-3.59-.52-1.77-1.1-3.53-1.49-5.35a16.37,16.37,0,0,1-.41-4.47c0-.08,0-.18.08-.23a.52.52,0,0,1,0,.28,14.05,14.05,0,0,0,.07,1.6,30.54,30.54,0,0,0,1.79,6.78c.06.17.13.18.26.07a2.45,2.45,0,0,0,.64-1.06,6,6,0,0,0,.23-2.17c-.07-1.65-.29-3.28-.49-4.91l-.46-3.67c-.08-1-.13-2.06-.19-3.1L16.4,0l-.17.11a8,8,0,0,0-3,2.8,9.59,9.59,0,0,0-1.36,3.52,10.24,10.24,0,0,0,.54,5.44A7,7,0,0,0,14,14.65a2.21,2.21,0,0,0,1.35.73c.2,0,.28.11.33.31.42,1.81.75,3.63,1,5.48a2.1,2.1,0,0,1-.11,1.07,30.7,30.7,0,0,0-1.08,3.53c0,.06,0,.15-.07.16s-.09-.07-.13-.12c-.21-.26-.4-.53-.61-.78A43,43,0,0,0,11,21.35a30.61,30.61,0,0,1-2.6-2.71,10.52,10.52,0,0,1-2.09-3.78,6.92,6.92,0,0,1-.22-1.08.1.1,0,0,1,0,.06,9.43,9.43,0,0,0,2.17,4.28,41.53,41.53,0,0,0,4.28,4c.12.11.19.08.24-.08a2.52,2.52,0,0,0,0-1.27,6.54,6.54,0,0,0-1.13-2.41c-.81-1.19-1.68-2.31-2.53-3.46a16.49,16.49,0,0,1-1.41-2.16A19.13,19.13,0,0,1,6.56,9.41c-.1-.33-.12-.34-.35-.11A7.49,7.49,0,0,0,4,15.75a8.68,8.68,0,0,0,2,4.58,9.74,9.74,0,0,0,3.43,2.78,2.67,2.67,0,0,0,2.47.1c.09,0,.15,0,.21.07l.55.61A19.45,19.45,0,0,1,15,26.95a.73.73,0,0,1,.11.51A21,21,0,0,0,14.84,30a27.34,27.34,0,0,0,.29,4.75c0,.31,0,.32-.25.25a21,21,0,0,1-2.05-.62A17.68,17.68,0,0,1,7.4,31.3a14.12,14.12,0,0,1-4.94-8.62,14.9,14.9,0,0,1-.2-1.85l0,.07c0,.06,0,.11,0,.17a14,14,0,0,0,3.56,8.25,14.84,14.84,0,0,0,3.4,2.77c.2.12.24.09.25-.15a2.76,2.76,0,0,0-.15-1A9.17,9.17,0,0,0,8.2,28.69a31.33,31.33,0,0,1-3.73-7.63A51.66,51.66,0,0,1,3,15.24c0-.13,0-.34-.14-.37s-.21.15-.29.26A12.37,12.37,0,0,0,0,22.62a12,12,0,0,0,2.35,7.29,9.09,9.09,0,0,0,4.21,3.43,2.51,2.51,0,0,0,2.28-.08c.11-.07.19,0,.28,0,.39.24.77.49,1.16.72a21.59,21.59,0,0,0,4.79,2c.14,0,.25.08.28.28.33,2.08.7,4.44.84,6.55,0,.6.06,1.36.08,2.05,0,0,0,.15,0,.4L15.81,45a42.28,42.28,0,0,0-4.49-2.34A30.08,30.08,0,0,1,8.07,40.9,10.34,10.34,0,0,1,5,38a6.81,6.81,0,0,1-.53-.94.09.09,0,0,1,.05,0,9.27,9.27,0,0,0,3.32,3.34A40.81,40.81,0,0,0,13,42.93c.14.06.2,0,.2-.14a2.48,2.48,0,0,0-.34-1.2,6.43,6.43,0,0,0-1.78-1.91C10,38.81,8.84,38,7.7,37.2a16.21,16.21,0,0,1-2-1.59,18.8,18.8,0,0,1-2.2-2.78c-.19-.28-.22-.28-.36,0a7.36,7.36,0,0,0-.08,6.69,8.53,8.53,0,0,0,3.27,3.68,9.57,9.57,0,0,0,4,1.56,2.62,2.62,0,0,0,2.34-.65c.07-.07.15,0,.22,0l.7.41a20.62,20.62,0,0,1,2.62,1.79,18.19,18.19,0,0,1-.46,4.06c-.54,1.85,2.56-.22,2.56-.22s0-4.17-.15-6.71h0v-.26C19.1,42.08,20,41,21,40a.27.27,0,0,1,.36-.09,1.83,1.83,0,0,0,1.28,0,5.82,5.82,0,0,0,2.29-1.34,8.5,8.5,0,0,0,2.65-3.68A8,8,0,0,0,28,31.84a6.6,6.6,0,0,0-1-3.27l-.08-.15-.07,0c-.47.72-.93,1.44-1.42,2.14L23.59,33c-.83,1.08-1.66,2.17-2.4,3.32A5,5,0,0,0,20.46,38a2,2,0,0,0,0,1c0,.13.1.16.21.06a25.33,25.33,0,0,0,4.1-4.12,11.67,11.67,0,0,0,.72-1.11.43.43,0,0,1,.15-.19c.05.08,0,.14,0,.2a13.58,13.58,0,0,1-2.15,3c-1,1.14-2.18,2.16-3.29,3.21-.7.66-1.38,1.34-2,2.07-.06-.65-.14-1.36-.26-2.26-.28-2.07-.74-4.09-1.15-6.14-.06-.32-.07-.32.21-.42a10.48,10.48,0,0,0,4.69-3.27,19.18,19.18,0,0,0,2.57-4.23c.83-1.77,1.51-3.6,2.29-5.39.31-.69.62-1.38,1-2-.86,1.85-1.52,3.79-2.25,5.7a24.52,24.52,0,0,1-3.1,6.12c-.1.14-.08.23.07.28l.22,0A2.54,2.54,0,0,0,24.2,30a7.7,7.7,0,0,0,2-2.19,23.28,23.28,0,0,0,3.12-8.51c.28-1.56.6-3.11,1-4.64C30.42,14.31,30.4,14.28,30.09,14.35Z"/><path class="cls-1" d="M18.71,18.12v0Z"/></g></g></svg>