<svg xmlns="http://www.w3.org/2000/svg" viewBox="0 0 40.8 48.67"><defs><style>.cls-1,.cls-2{fill:#fff;}.cls-2{stroke:#2f62a2;stroke-linecap:round;stroke-linejoin:round;stroke-width:1.16px;}.cls-3{fill:none;stroke:#fff;stroke-miterlimit:10;stroke-width:0.75px;}</style></defs><title>Asset 18soils101_soilhealth_white</title><g id="Layer_2" data-name="Layer 2"><g id="Layer_1-2" data-name="Layer 1"><path class="cls-1" d="M19,8.21l-.71,2.5a3.54,3.54,0,0,1-3.38-1.22c-1.53-1.71-.28-2.79-.28-2.79a4.39,4.39,0,0,1-2.79-2,4,4,0,0,1,0-3A26.27,26.27,0,0,1,6,3.45C2.85,4,.58,3.87,0,2.56A48.64,48.64,0,0,0,9.32.86S14.45-.87,17,.58s1.56,3.25,1.56,3.25-.19.7-1.36,1.17a1.27,1.27,0,0,0-.67,1.7S16.67,7.68,19,8.21Z"/><path class="cls-1" d="M12.22,6.37A35.81,35.81,0,0,1,8.53,7.92a2.3,2.3,0,0,0,2.7.21A9.45,9.45,0,0,0,13.37,7,6,6,0,0,1,12.22,6.37Z"/><line class="cls-1" x1="13.41" y1="6.94" x2="12.31" y2="6.32"/><path class="cls-1" d="M10.92,4.88A19.78,19.78,0,0,1,5.48,6.45a3.5,3.5,0,0,0,3.39.44c1.78-.52,2.6-.81,2.86-.91A3.36,3.36,0,0,1,10.92,4.88Z"/><line class="cls-1" x1="13.41" y1="6.94" x2="12.31" y2="6.32"/><path class="cls-1" d="M10.73,2.83A31.29,31.29,0,0,1,3,4.77s1,1.36,4.28.55a23,23,0,0,0,3.41-1A3.44,3.44,0,0,1,10.73,2.83Z"/><path class="cls-1" d="M22.14,9.23l-.91,2.44a3.54,3.54,0,0,0,3.44,1c2.25-.46,1.89-2.08,1.89-2.08A4.39,4.39,0,0,0,30,10.7a4,4,0,0,0,1.77-2.46,26.27,26.27,0,0,0,3.68,4.88c2.25,2.31,4.13,3.58,5.38,2.87a48.64,48.64,0,0,1-6.49-6.91s-3.09-4.44-6-4.77S25.13,6,25.13,6a2.09,2.09,0,0,0,.4,1.75,1.27,1.27,0,0,1-.47,1.76S24.35,10.21,22.14,9.23Z"/><path class="cls-1" d="M28.71,11.8a35.81,35.81,0,0,0,2,3.44s-1.32.27-2.3-1.44a9.45,9.45,0,0,1-1-2.19A6,6,0,0,0,28.71,11.8Z"/><path class="cls-1" d="M30.63,11.38a19.78,19.78,0,0,0,3.45,4.5,3.5,3.5,0,0,1-3-1.66C30,12.73,29.49,12,29.34,11.78A3.36,3.36,0,0,0,30.63,11.38Z"/><path class="cls-1" d="M32,9.84A31.29,31.29,0,0,0,37,16s-1.59.52-3.77-2.1A23,23,0,0,1,31.12,11,3.44,3.44,0,0,0,32,9.84Z"/><path class="cls-1" d="M21.59,5.7a1.78,1.78,0,1,0-1.15-2.26A1.8,1.8,0,0,0,21.59,5.7Z"/><path class="cls-2" d="M13.45,13.5"/><path class="cls-3" d="M23.53,15.26A3.28,3.28,0,0,0,21,14.18c-.61,0-.79.3-.62.83a2.62,2.62,0,0,0,2.32,1.72c0,.69-.33,1.29-1.35,1.66a10.3,10.3,0,0,1-2.33.33c-.49,0-.7,0-.88,0l4.38-12.2-2.18-.72L16.55,18.33c-.35-.25-.71-.5-1-.77a10.29,10.29,0,0,1-1.68-1.65,1.65,1.65,0,0,1-.1-2.13,2.62,2.62,0,0,0,2.89,0c.45-.32.49-.68,0-1a3.28,3.28,0,0,0-2.69-.64,2.77,2.77,0,0,0-2,3.82A5.46,5.46,0,0,0,13.23,18c.34.34.8.78,1.27,1.22l-.3-.28c-.16.05-.48.12-.65.18a4.08,4.08,0,0,0-2.38,6.16,19.4,19.4,0,0,0,1.35,1.91c.32.43.65.84,1,1.26l0,.08c-.39-.48-.78-1-1.18-1.43A.35.35,0,0,0,12,27a11.81,11.81,0,0,0-1.48.58,3.28,3.28,0,0,0-1.84,2.71,5,5,0,0,0,1.16,4.16l-.06-.07c-.18.11-.48.31-.66.42a2.93,2.93,0,0,0-1.06,4,13.45,13.45,0,0,0,1.13,1.25s-.13.07-.15,0c-1.1.35-2.38,1.12-2.57,2.32a2.39,2.39,0,0,0,.3,1.62C6.7,42.25,8,41.47,9.65,41.19L7.43,48.54,10,41.49a10,10,0,0,1,.68.9,1.93,1.93,0,0,1,.11,2.06c-.14.26-.27.53-.41.81a2.69,2.69,0,0,0,1.36-1.67,2.65,2.65,0,0,0-.26-1.87c-.31-.6-.62-1.19-.93-1.8h0c.19.34.4.69.59,1,.54-.23,1-.41,1.49-.63a2.93,2.93,0,0,0,1.61-3.5,4.51,4.51,0,0,0-.45-1.09l0,0a6.32,6.32,0,0,0,3.28-2.54,3.39,3.39,0,0,0,.09-3.63,9.34,9.34,0,0,0-1-1.39c-.34-.4-.7-.79-1.05-1.18h0l1,1.15a18.2,18.2,0,0,0,2.19-.91A4,4,0,0,0,20,21.72a7.65,7.65,0,0,0-.74-1.1l0,0,1.28-.2a5.47,5.47,0,0,0,2.28-.93A2.77,2.77,0,0,0,23.53,15.26Zm-7.64,5.28h0l-.36-.33Zm-2.7,3.85a2.18,2.18,0,0,1,1.18-3A7.39,7.39,0,0,1,15.74,21l-1.5,5A7,7,0,0,1,13.19,24.39Zm-.83,5c.31-.13.64-.25,1-.38L12,33.41c-.17-.21-.34-.41-.49-.63A2.17,2.17,0,0,1,12.36,29.38ZM11.19,36.1h0l-.3-.36Zm-.1.32-.87,2.88c-.09-.18-.18-.36-.26-.55C9.43,37.52,9.88,36.82,11.09,36.42Zm-1.42,4.7,0,0,0,0Zm1.55-2.07a4.28,4.28,0,0,1-.48.25l.93-2.6A1.44,1.44,0,0,1,11.23,39.05Zm3.42-9a2.17,2.17,0,0,1-1.34,3.39l-.52.17,1.48-4.11C14.4,29.67,14.53,29.86,14.65,30Zm2.52-4.72a5.86,5.86,0,0,1-1.42.77,2.67,2.67,0,0,1-.29.09l1.62-4.5a3.83,3.83,0,0,1,.66,1A2.15,2.15,0,0,1,17.17,25.32Z"/></g></g></svg>