<svg xmlns="http://www.w3.org/2000/svg" viewBox="0 0 67.01 37.43"><defs><style>.cls-1{fill:none;stroke:#fff;stroke-miterlimit:10;}.cls-2{fill:#fff;}</style></defs><title>Asset 57aboutus_vision_white</title><g id="Layer_2" data-name="Layer 2"><g id="Layer_1-2" data-name="Layer 1"><path class="cls-1" d="M.52,18.55a4.17,4.17,0,0,1,.11-1.47c.68-2.6,3.85-4.44,5.88-5.94a70.26,70.26,0,0,1,8.22-5.27C20.3,2.86,26.48.61,32.87.5,43.11.34,51,5.32,59,11.07c1.42,1,2.85,2,4.2,3.14,1.1.89,2.77,1.92,3.21,3.33a3.26,3.26,0,0,1,0,1.62c-1,4.67-6.92,7.84-10.52,10.27-7.53,5.09-17.27,8.58-26.42,7.2a47.56,47.56,0,0,1-17.32-6.25A38,38,0,0,1,2.07,22,6.81,6.81,0,0,1,.52,18.55Z"/><path class="cls-2" d="M33.75,7.39A11.33,11.33,0,1,0,45.07,18.72,11.33,11.33,0,0,0,33.75,7.39Zm0,19.34a7.83,7.83,0,1,1,2.38-15.29,2.92,2.92,0,0,0,4.24,3.29,7.82,7.82,0,0,1-6.62,12Z"/></g></g></svg>