<svg xmlns="http://www.w3.org/2000/svg" viewBox="0 0 85.26 85.26"><defs><style>.cls-1,.cls-3,.cls-4{fill:none;stroke:#fff;stroke-miterlimit:10;}.cls-1{stroke-width:1.5px;}.cls-2{fill:#5f5353;}.cls-4{stroke-width:0.75px;}</style></defs><title>Asset 60aboutus_contactus_gray</title><g id="Layer_2" data-name="Layer 2"><g id="Layer_1-2" data-name="Layer 1"><circle class="cls-1" cx="42.63" cy="42.63" r="41.88"/><circle class="cls-2" cx="42.63" cy="42.63" r="37.57"/><path class="cls-3" d="M61.56,26H23.7A8.69,8.69,0,0,0,15,34.71V49.58a8.69,8.69,0,0,0,8.66,8.66h6.67v9.2l14.45-9.2H61.56a8.69,8.69,0,0,0,8.66-8.66V34.71A8.69,8.69,0,0,0,61.56,26Z"/><rect class="cls-4" x="25.88" y="37.36" width="7.66" height="7.66" rx="2.5" ry="2.5"/><rect class="cls-4" x="38.8" y="37.36" width="7.66" height="7.66" rx="2.5" ry="2.5"/><rect class="cls-4" x="51.71" y="37.36" width="7.66" height="7.66" rx="2.5" ry="2.5"/></g></g></svg>