<svg xmlns="http://www.w3.org/2000/svg" viewBox="0 0 66.56 57.31"><defs><style>.cls-1{fill:#e16473;stroke:#fff;stroke-miterlimit:10;stroke-width:0.75px;}</style></defs><title>Asset 24</title><g id="Layer_2" data-name="Layer 2"><g id="Layer_1-2" data-name="Layer 1"><path class="cls-1" d="M7.57,0V46.27s5.62,0,6,0c7.19.84,12.14,6.22,17.63,10.28-.1-7.51,0-15,0-22.54q0-12.3,0-24.61,0-.08,0-.16c0-.77-3.24-2.51-3.8-2.88A34.85,34.85,0,0,0,14.24,1.19C13.66,1.08,7.57.11,7.57,0Z"/><path class="cls-1" d="M59,0V46.27s-5.62,0-6,0c-7.19.84-12.14,6.22-17.63,10.28.1-7.51,0-15,0-22.54q0-12.3,0-24.61,0-.08,0-.16c0-.77,3.24-2.51,3.8-2.88A34.85,34.85,0,0,1,52.32,1.19C52.9,1.08,59,.11,59,0Z"/><path class="cls-1" d="M.38,6.17V52.44c8.45,1.3,17,3.28,25.57,3.93.36,0,.75.11,1.1.14-.88-.07-2.81-2.12-3.61-2.64a35.52,35.52,0,0,0-4.17-2.3,20.07,20.07,0,0,0-9-2.25l-3.63.05a2.75,2.75,0,0,1-1.2-.16,1.85,1.85,0,0,1-1-1.39c-.42-2.38,0-5.31,0-7.74V12.39a46.11,46.11,0,0,0,0-5.19Z"/><path class="cls-1" d="M66.18,6.17V52.44c-8.45,1.3-17,3.28-25.57,3.93-.36,0-.75.11-1.1.14.88-.07,2.81-2.12,3.61-2.64a35.52,35.52,0,0,1,4.17-2.3,20.07,20.07,0,0,1,9-2.25l3.63.05a2.75,2.75,0,0,0,1.2-.16,1.85,1.85,0,0,0,1-1.39c.42-2.38,0-5.31,0-7.74V12.39a46.11,46.11,0,0,1,0-5.19Z"/></g></g></svg>