<svg xmlns="http://www.w3.org/2000/svg" viewBox="0 0 80.05 80.05"><defs><style>.cls-1{fill:none;stroke:#fff;stroke-miterlimit:10;stroke-width:1.5px;}.cls-2{fill:#5f5353;}.cls-3{fill:#fff;}</style></defs><title>Asset 25soils101_chemistry_gray</title><g id="Layer_2" data-name="Layer 2"><g id="Layer_1-2" data-name="Layer 1"><circle class="cls-1" cx="40.03" cy="40.03" r="39.28"/><circle class="cls-2" cx="40.03" cy="40.03" r="34.99"/><path class="cls-3" d="M44.61,49.84a2.66,2.66,0,0,0-2.33.14,1.59,1.59,0,0,0-.37-2.07A1.55,1.55,0,0,0,40,48a1.53,1.53,0,0,0-.38,1.87,1.58,1.58,0,0,0,2,.72,2.62,2.62,0,0,0,.22,3.56A2.58,2.58,0,0,0,45.91,51,2.5,2.5,0,0,0,44.61,49.84Z"/><path class="cls-3" d="M47.65,45.26a.88.88,0,0,0-.89.88.89.89,0,1,0,1.79,0A.88.88,0,0,0,47.65,45.26Z"/><path class="cls-3" d="M29.9,43.09a1.74,1.74,0,0,0-1.52.09,1,1,0,0,0-.24-1.35,1,1,0,0,0-1.24,0,1,1,0,0,0-.25,1.22,1,1,0,0,0,1.3.47,1.71,1.71,0,0,0,.14,2.32,1.69,1.69,0,0,0,2.66-2A1.63,1.63,0,0,0,29.9,43.09Z"/><path class="cls-3" d="M31.88,40.1a.57.57,0,0,0-.58.57.58.58,0,1,0,1.17,0A.58.58,0,0,0,31.88,40.1Z"/><path class="cls-3" d="M59.26,54.31l-.07-.14L49.92,37a1.11,1.11,0,0,1-.13-.51q0-7.34,0-14.68v-.33c.66-.08.81-.26.81-.89,0-.07,0-.15,0-.22,0-.59-.21-.8-.8-.8-3,0-5.92,0-8.87,0-.83,0-1.08.14-1,1,0,.65.14.81.8.89,0,.07,0,.14,0,.2q0,7.45,0,14.9a.85.85,0,0,1-.1.39l-3,5.56-4.22-7.82a.73.73,0,0,1-.08-.33q0-4.79,0-9.59v-.21c.43-.06.53-.17.53-.58,0,0,0-.1,0-.14,0-.39-.14-.52-.52-.52h-5.8c-.54,0-.71.09-.68.68,0,.42.09.53.52.58,0,0,0,.09,0,.13q0,4.87,0,9.73a.56.56,0,0,1-.07.25L22,44.44,21.18,46l0,0a3.64,3.64,0,0,0,3.23,5.23h8.5l-.36.67-1.27,2.35,0,.06a5.58,5.58,0,0,0,4.94,8H54.27a5.58,5.58,0,0,0,5-8ZM47,23a1.73,1.73,0,0,1,0-.32.63.63,0,0,1,.61-.5.63.63,0,0,1,.65.49,2.27,2.27,0,0,1,0,.41q0,3.12,0,6.24t0,6.37c0,.49-.24.76-.65.76a.63.63,0,0,1-.65-.6c0-.07,0-.15,0-.22Q47,29.28,47,23ZM31.46,25.53a1.13,1.13,0,0,1,0-.21.41.41,0,0,1,.4-.32.41.41,0,0,1,.42.32,1.48,1.48,0,0,1,0,.27q0,2,0,4.08t0,4.16c0,.32-.16.5-.42.5a.41.41,0,0,1-.42-.39s0-.1,0-.14Q31.46,29.66,31.46,25.53Zm1.25,25H24.85a3.07,3.07,0,0,1-2.75-4.43h0v0l.06-.12.09-.16,2.45-4.52,1.68-3.08.11-.2a5.52,5.52,0,0,0,1.81.39,5.39,5.39,0,0,0,3-.88l.85-.51.2-.11a1,1,0,0,1,1.61.51l1.44,2.74,1.71,3.25-3.84,7.13Zm20.9,10.72H36.88a4.7,4.7,0,0,1-4.21-6.79h0l0,0,.1-.18.13-.24,3.76-6.92,2.57-4.72.17-.31a8.45,8.45,0,0,0,2.77.6,8.26,8.26,0,0,0,4.54-1.34L48,40.58l.31-.17a1.55,1.55,0,0,1,2.46.78L53,45.39l3.42,6.5h0l.09.17L58,54.8a4.7,4.7,0,0,1-4.34,6.48Z"/></g></g></svg>