<svg xmlns="http://www.w3.org/2000/svg" viewBox="0 0 50.81 47.81"><defs><style>.cls-1{fill:none;stroke:#fff;stroke-miterlimit:10;}.cls-2{fill:#fff;}</style></defs><title>Asset 50aboutus_values_white</title><g id="Layer_2" data-name="Layer 2"><g id="Layer_1-2" data-name="Layer 1"><path class="cls-1" d="M25.4,6.71c0-.84-2.07-2.62-2.7-3.18a11.63,11.63,0,0,0-3.58-2.18A13.45,13.45,0,0,0,8.27,2,15.55,15.55,0,0,0,2.5,7.82a18.28,18.28,0,0,0-.6,15.33c2,4.41,5.63,7.9,9.24,11,1.41,1.21,2.85,2.38,4.28,3.55,2.75,2.27,5.44,4.85,8,7.38l2,2,2-2,4-4,6.06-5.39c2.56-2.27,5.33-4.38,7.65-6.88a20.79,20.79,0,0,0,3.13-4.56,18,18,0,0,0,2-8.72,18.25,18.25,0,0,0-.66-5.68C48.14,5.35,43.78,1.36,39.05.65a14.2,14.2,0,0,0-9.1,2,15.6,15.6,0,0,0-2.46,1.89c-.39.36-.75.74-1.11,1.13C26.21,5.88,25.4,6.46,25.4,6.71Z"/><path class="cls-2" d="M6,16.08A5.44,5.44,0,0,1,6,13.9a8.9,8.9,0,0,1,1.48-3.72A9.52,9.52,0,0,1,11.8,7.1a15.8,15.8,0,0,1,2.87-.88c.68-.13,1.69-.41,2,.52C17,8.12,15.31,8,14.56,8.05a6.43,6.43,0,0,0-1.7.62,9.62,9.62,0,0,0-3.1,2.22A7.44,7.44,0,0,0,8.07,14c-.2.75,0,2.94-1.26,2.86A.9.9,0,0,1,6,16.08Z"/></g></g></svg>