<svg xmlns="http://www.w3.org/2000/svg" viewBox="0 0 85.26 85.26"><defs><style>.cls-1,.cls-3{fill:none;stroke:#fff;stroke-miterlimit:10;}.cls-1{stroke-width:1.5px;}.cls-2{fill:#5f5353;}.cls-4{fill:#fff;}</style></defs><title>Asset 56aboutus_vision_gray</title><g id="Layer_2" data-name="Layer 2"><g id="Layer_1-2" data-name="Layer 1"><circle class="cls-1" cx="42.63" cy="42.63" r="41.88"/><circle class="cls-2" cx="42.63" cy="42.63" r="37.57"/><path class="cls-3" d="M9.64,41.72a4.17,4.17,0,0,1,.11-1.47c.68-2.6,3.85-4.44,5.88-5.94A70.26,70.26,0,0,1,23.86,29c5.56-3,11.75-5.26,18.13-5.37,10.24-.17,18.13,4.81,26.11,10.56,1.42,1,2.85,2,4.2,3.14,1.1.89,2.77,1.92,3.21,3.33a3.26,3.26,0,0,1,0,1.62C74.58,47,68.63,50.16,65,52.59c-7.53,5.09-17.27,8.58-26.42,7.2a47.56,47.56,0,0,1-17.32-6.25,38,38,0,0,1-10.1-8.35A6.81,6.81,0,0,1,9.64,41.72Z"/><path class="cls-4" d="M42.87,30.56A11.33,11.33,0,1,0,54.19,41.88,11.33,11.33,0,0,0,42.87,30.56Zm0,19.34A7.83,7.83,0,1,1,45.27,34.6a2.92,2.92,0,0,0,4.24,3.29,7.82,7.82,0,0,1-6.62,12Z"/></g></g></svg>