<svg xmlns="http://www.w3.org/2000/svg" viewBox="0 0 85.26 85.26"><defs><style>.cls-1{fill:none;stroke-width:1.5px;}.cls-1,.cls-3{stroke:#fff;stroke-miterlimit:10;}.cls-2{fill:#5f5353;}.cls-3{fill:#e16473;stroke-width:0.75px;}</style></defs><title>Asset 53aboutus_story_gray</title><g id="Layer_2" data-name="Layer 2"><g id="Layer_1-2" data-name="Layer 1"><circle class="cls-1" cx="42.63" cy="42.63" r="41.88"/><circle class="cls-2" cx="42.99" cy="42.39" r="37.57"/><path class="cls-3" d="M23.07,21.83V56.12s4.16,0,4.47,0c5.33.62,9,4.61,13.06,7.62-.08-5.56,0-11.14,0-16.7q0-9.12,0-18.24s0-.08,0-.12c0-.57-2.4-1.86-2.82-2.13A25.83,25.83,0,0,0,28,22.71C27.58,22.62,23.07,21.91,23.07,21.83Z"/><path class="cls-3" d="M61.18,21.83V56.12s-4.16,0-4.47,0c-5.33.62-9,4.61-13.06,7.62.08-5.56,0-11.14,0-16.7q0-9.12,0-18.24s0-.08,0-.12c0-.57,2.4-1.86,2.82-2.13a25.83,25.83,0,0,1,9.77-3.85C56.67,22.62,61.18,21.91,61.18,21.83Z"/><path class="cls-3" d="M17.74,26.4V60.69c6.26,1,12.64,2.43,18.95,2.92.27,0,.56.08.81.1-.65-.05-2.08-1.57-2.68-2A26.32,26.32,0,0,0,31.73,60a14.88,14.88,0,0,0-6.67-1.67l-2.69,0a2,2,0,0,1-.89-.12,1.37,1.37,0,0,1-.71-1,35.58,35.58,0,0,1,0-5.74V31a34.17,34.17,0,0,0,0-3.85Z"/><path class="cls-3" d="M66.51,26.4V60.69c-6.26,1-12.64,2.43-18.95,2.92-.27,0-.56.08-.81.1.65-.05,2.08-1.57,2.68-2A26.32,26.32,0,0,1,52.51,60a14.88,14.88,0,0,1,6.67-1.67l2.69,0a2,2,0,0,0,.89-.12,1.37,1.37,0,0,0,.71-1,35.58,35.58,0,0,0,0-5.74V31a34.17,34.17,0,0,1,0-3.85Z"/></g></g></svg>