<svg xmlns="http://www.w3.org/2000/svg" viewBox="0 0 66 47.36"><defs><style>.cls-1{fill:none;stroke:#fff;stroke-miterlimit:10;}</style></defs><title>Asset 49aboutus_ourteam_white</title><g id="Layer_2" data-name="Layer 2"><g id="Layer_1-2" data-name="Layer 1"><path class="cls-1" d="M12,24.5a9.32,9.32,0,0,1-8-4.1A8,8,0,0,0,.5,27c0,.27,0,.53,0,.79V43H16.46V27.79c0-.26,0-.52,0-.79a8,8,0,0,0-.68-3.22A10.46,10.46,0,0,1,12,24.5Z"/><path class="cls-1" d="M54,24.5a9.32,9.32,0,0,0,8-4.1A8,8,0,0,1,65.5,27c0,.27,0,.53,0,.79V43H49.54V27.79c0-.26,0-.52,0-.79a8,8,0,0,1,.68-3.22A10.46,10.46,0,0,0,54,24.5Z"/><circle class="cls-1" cx="52" cy="11.5" r="8"/><circle class="cls-1" cx="13" cy="11.5" r="8"/><circle class="cls-1" cx="33" cy="9.5" r="9"/><path class="cls-1" d="M47,23.61a4.44,4.44,0,0,0-4.34-4.5H40.54a11.22,11.22,0,0,1-16.08,0H23.34A4.44,4.44,0,0,0,19,23.61V26s0,.09,0,.14h0V46.86H47V26.14h0S47,26,47,26Z"/></g></g></svg>