<svg xmlns="http://www.w3.org/2000/svg" viewBox="0 0 139.21 117.64"><defs><style>.cls-1{fill:#fff;}</style></defs><title>Asset 37getinvolved_community_white</title><g id="Layer_2" data-name="Layer 2"><g id="Layer_1-2" data-name="Layer 1"><circle class="cls-1" cx="19.17" cy="18.99" r="11.56"/><circle class="cls-1" cx="121.08" cy="18.99" r="11.56"/><circle class="cls-1" cx="69.72" cy="13.27" r="13.27"/><path class="cls-1" d="M28.57,33H8.73A8.75,8.75,0,0,0,0,41.7V69.31a8.76,8.76,0,0,0,6.94,8.54V57.21h.67V78A8.67,8.67,0,0,0,8.73,78H28.57a8.64,8.64,0,0,0,2.16-.28V57.21h.67V77.56a8.76,8.76,0,0,0,5.9-8.25V41.7A8.75,8.75,0,0,0,28.57,33Z"/><path class="cls-1" d="M22,64.82H16.34a8.75,8.75,0,0,0-8.73,8.73v27.61a8.75,8.75,0,0,0,8.73,8.73h2.49V78h.67v31.85H22a8.75,8.75,0,0,0,8.73-8.73V73.55A8.75,8.75,0,0,0,22,64.82Z"/><path class="cls-1" d="M130.48,33H110.64a8.75,8.75,0,0,0-8.73,8.73V69.31a8.76,8.76,0,0,0,6.94,8.54V57.21h.67V78a8.67,8.67,0,0,0,1.12.08h19.84a8.64,8.64,0,0,0,2.16-.28V57.21h.67V77.56a8.76,8.76,0,0,0,5.9-8.25V41.7A8.75,8.75,0,0,0,130.48,33Z"/><path class="cls-1" d="M123.9,64.82h-5.65a8.75,8.75,0,0,0-8.73,8.73v27.61a8.75,8.75,0,0,0,8.73,8.73h2.49V78h.67v31.85h2.49a8.75,8.75,0,0,0,8.73-8.73V73.55A8.75,8.75,0,0,0,123.9,64.82Z"/><path class="cls-1" d="M81.81,29.33H56.44a8.75,8.75,0,0,0-8.73,8.73V72.35a8.75,8.75,0,0,0,8,8.69V55.28h.77V81.08H81.81a8.66,8.66,0,0,0,1.24-.1V55.28h.77V80.83a8.76,8.76,0,0,0,6.72-8.48V38.06A8.75,8.75,0,0,0,81.81,29.33Z"/><path class="cls-1" d="M74.26,65.89H65.18a8.75,8.75,0,0,0-8.73,8.73v34.29a8.75,8.75,0,0,0,8.73,8.73h4.27V81.07h.77v36.57h4A8.75,8.75,0,0,0,83,108.91V74.62A8.75,8.75,0,0,0,74.26,65.89Z"/></g></g></svg>