<svg xmlns="http://www.w3.org/2000/svg" viewBox="0 0 85.26 85.26"><defs><style>.cls-1{fill:none;stroke:#fff;stroke-miterlimit:10;stroke-width:1.5px;}.cls-2{fill:#5f5353;}.cls-3{fill:#fff;}</style></defs><title>Asset 38getinvolved_community_gray</title><g id="Layer_2" data-name="Layer 2"><g id="Layer_1-2" data-name="Layer 1"><circle class="cls-1" cx="42.63" cy="42.63" r="41.88"/><circle class="cls-2" cx="42.43" cy="42.39" r="37.57"/><circle class="cls-3" cx="23.02" cy="26.5" r="4.49"/><circle class="cls-3" cx="62.64" cy="26.5" r="4.49"/><circle class="cls-3" cx="42.68" cy="24.27" r="5.16"/><path class="cls-3" d="M26.68,31.93H19a3.4,3.4,0,0,0-3.39,3.39V46.06a3.41,3.41,0,0,0,2.7,3.32v-8h.26v8.06a3.37,3.37,0,0,0,.43,0h7.71a3.36,3.36,0,0,0,.84-.11v-8h.26v7.91a3.4,3.4,0,0,0,2.29-3.21V35.33A3.4,3.4,0,0,0,26.68,31.93Z"/><path class="cls-3" d="M24.12,44.31h-2.2a3.4,3.4,0,0,0-3.39,3.39V58.44a3.4,3.4,0,0,0,3.39,3.39h1V49.45h.26V61.83h1a3.4,3.4,0,0,0,3.39-3.39V47.71A3.4,3.4,0,0,0,24.12,44.31Z"/><path class="cls-3" d="M66.29,31.93H58.58a3.4,3.4,0,0,0-3.39,3.39V46.06a3.41,3.41,0,0,0,2.7,3.32v-8h.26v8.06a3.37,3.37,0,0,0,.43,0h7.71a3.36,3.36,0,0,0,.84-.11v-8h.26v7.91a3.4,3.4,0,0,0,2.29-3.21V35.33A3.4,3.4,0,0,0,66.29,31.93Z"/><path class="cls-3" d="M63.74,44.31h-2.2a3.4,3.4,0,0,0-3.39,3.39V58.44a3.4,3.4,0,0,0,3.39,3.39h1V49.45h.26V61.83h1a3.4,3.4,0,0,0,3.39-3.39V47.71A3.4,3.4,0,0,0,63.74,44.31Z"/><path class="cls-3" d="M47.37,30.52H37.51a3.4,3.4,0,0,0-3.39,3.39V47.24a3.4,3.4,0,0,0,3.1,3.38v-10h.3v10h9.86a3.36,3.36,0,0,0,.48,0v-10h.3v9.93a3.4,3.4,0,0,0,2.61-3.3V33.91A3.4,3.4,0,0,0,47.37,30.52Z"/><path class="cls-3" d="M44.44,44.73H40.91a3.4,3.4,0,0,0-3.39,3.39V61.45a3.4,3.4,0,0,0,3.39,3.39h1.66V50.63h.3V64.85h1.57a3.4,3.4,0,0,0,3.39-3.39V48.12A3.4,3.4,0,0,0,44.44,44.73Z"/></g></g></svg>