<svg xmlns="http://www.w3.org/2000/svg" viewBox="0 0 85.26 85.26"><defs><style>.cls-1{fill:none;stroke:#fff;stroke-miterlimit:10;stroke-width:1.5px;}.cls-2{fill:#5f5353;}.cls-3{fill:#fff;}.cls-4{fill:#5f5253;}</style></defs><title>Asset 45getinvolved_donation_allgray</title><g id="Layer_2" data-name="Layer 2"><g id="Layer_1-2" data-name="Layer 1"><circle class="cls-1" cx="42.63" cy="42.63" r="41.88"/><circle class="cls-2" cx="42.69" cy="42.49" r="37.57"/><path class="cls-3" d="M14,31.06s8.32-5,29.1,0c14.05,3.36,27.62-3.26,27.62-3.26V54.67s-10,8.88-28.36,3.26A43.59,43.59,0,0,0,14,58.86Z"/><ellipse class="cls-4" cx="44.06" cy="44.54" rx="11.06" ry="8.27" transform="translate(-5.11 83.36) rotate(-83.6)"/><path class="cls-3" d="M47.15,47.33A3.05,3.05,0,0,1,44,50l-.1.89-1.35-.15.1-.89a4.91,4.91,0,0,1-2.82-2l1.54-1.53a3.39,3.39,0,0,0,2.18,1.49A1.06,1.06,0,0,0,44.82,47c.2-1.83-4.42-1.88-4-5.3a3,3,0,0,1,3-2.57l.11-.95,1.35.15-.1.93a4.92,4.92,0,0,1,2.5,1.7l-1.45,1.53a3.2,3.2,0,0,0-1.86-1.17c-.68-.07-1.16.25-1.22.78C43,43.71,47.57,43.94,47.15,47.33Z"/></g></g></svg>