<?xml version="1.0" encoding="utf-8"?>
<!-- Generator: Adobe Illustrator 16.0.0, SVG Export Plug-In . SVG Version: 6.00 Build 0)  -->
<!DOCTYPE svg PUBLIC "-//W3C//DTD SVG 1.1//EN" "http://www.w3.org/Graphics/SVG/1.1/DTD/svg11.dtd">
<svg version="1.1" xmlns="http://www.w3.org/2000/svg" xmlns:xlink="http://www.w3.org/1999/xlink" x="0px" y="0px" width="360px"
	 height="360px" viewBox="0 0 360 360" enable-background="new 0 0 360 360" xml:space="preserve">
<g id="brown_background_for_context" display="none">
	<rect x="-444.329" y="-45.203" display="inline" fill="#3B3234" width="2375.952" height="1245.126"/>
</g>
<g id="white_imagery__x2B__text">
</g>
<g id="Donations-Dollar_sign_copy">
</g>
<g id="Donations-Banknote">
</g>
<g id="Education-Brain">
</g>
<g id="Education-Book">
</g>
<g id="Social_Media-Connected_copy">
</g>
<g id="Social_Media-Wifi_copy">
</g>
<g id="Social_Media-Hashtag_copy">
</g>
<g id="Legislators-Capitol_Building">
</g>
<g id="Legislators-Gavel">
</g>
<g id="Community-Pin">
</g>
<g id="Community-Pin_copy">
</g>
<g id="Community-Houses_1_">
</g>
<g id="At_Home-Trowel">
</g>
<g id="At_Home-House">
	<g>
		<circle fill="#EC6A7C" cx="181.25" cy="180" r="119.117"/>
	</g>
	<polygon fill="#FFFFFF" points="182.609,94.145 155.691,121.186 155.691,104.62 140.362,104.62 140.362,136.583 140.385,136.564 
		122.947,154.083 140.362,153.916 140.362,211.078 169.258,211.078 169.258,169.74 195.614,169.74 195.614,211.078 223.582,211.078 
		223.582,153.116 239.552,152.962 	"/>
	<g>
		<rect x="101.93" y="233.194" fill="none" width="158.639" height="29.402"/>
		<path fill="#FFFFFF" d="M142.26,241.593v14h-2.631v-2.24c-1.092,1.456-2.717,2.437-4.789,2.437c-3.892,0-6.551-3.164-6.551-7.196
			s2.659-7.196,6.551-7.196c2.072,0,3.697,0.98,4.789,2.437v-2.24H142.26z M139.629,248.593c0-2.464-1.82-4.62-4.34-4.62
			c-2.521,0-4.285,2.072-4.285,4.62c0,2.576,1.765,4.647,4.285,4.647C137.809,253.24,139.629,251.057,139.629,248.593z"/>
		<path fill="#FFFFFF" d="M152.508,244.113h-2.883v11.479h-2.633v-11.479H145.2v-2.521h1.792v-3.752h2.633v3.752h2.883V244.113z"/>
		<path fill="#FFFFFF" d="M176.532,247.557v8.036H173.9v-7.644c0-2.772-1.429-4.229-3.416-4.229c-1.961,0-3.416,1.456-3.416,4.229
			l-0.028-0.112v7.756h-2.632v-22.399h2.632v10.388c0.812-1.316,2.296-2.269,4.256-2.269
			C174.04,241.312,176.532,243.385,176.532,247.557z"/>
		<path fill="#FFFFFF" d="M179.416,248.593c0-3.892,2.912-7.224,7.14-7.224c4.229,0,7.141,3.332,7.141,7.224
			s-2.912,7.224-7.141,7.224C182.328,255.816,179.416,252.484,179.416,248.593z M190.979,248.564c0-2.464-1.735-4.563-4.424-4.563
			c-2.632,0-4.452,2.1-4.452,4.563c0,2.492,1.82,4.62,4.452,4.62C189.244,253.185,190.979,251.057,190.979,248.564z"/>
		<path fill="#FFFFFF" d="M217.972,247.445l-0.028,8.147h-2.632v-7.7c0-2.52-1.26-4.144-3.248-4.144
			c-2.017,0-3.276,1.624-3.276,4.228v7.616h-2.632v-7.7c0-2.52-1.288-4.144-3.276-4.144c-1.987,0-3.247,1.624-3.247,4.228
			l-0.028-0.084v7.7h-2.632v-14h2.632v1.904c0.784-1.232,2.184-2.185,4.088-2.185c1.82,0,3.528,0.952,4.424,2.828
			c0.868-1.54,2.437-2.828,4.704-2.828C215.703,241.312,217.972,243.385,217.972,247.445z"/>
		<path fill="#FFFFFF" d="M234.268,249.656h-10.696c0.42,2.213,2.156,3.612,4.564,3.612c1.848,0,3.275-0.588,4.619-1.512v2.66
			c-1.176,0.868-2.855,1.399-4.76,1.399c-4.452,0-7.14-3.304-7.14-7.224c0-3.892,2.744-7.196,6.859-7.196
			C232.083,241.396,234.575,245.232,234.268,249.656z M223.6,247.473h7.896c-0.392-2.044-1.819-3.443-3.836-3.443
			C225.531,244.029,224.02,245.457,223.6,247.473z"/>
	</g>
</g>
</svg>
