<?xml version="1.0" encoding="utf-8"?>
<!-- Generator: Adobe Illustrator 16.0.0, SVG Export Plug-In . SVG Version: 6.00 Build 0)  -->
<!DOCTYPE svg PUBLIC "-//W3C//DTD SVG 1.1//EN" "http://www.w3.org/Graphics/SVG/1.1/DTD/svg11.dtd">
<svg version="1.1" xmlns="http://www.w3.org/2000/svg" xmlns:xlink="http://www.w3.org/1999/xlink" x="0px" y="0px" width="360px"
	 height="360px" viewBox="0 0 360 360" enable-background="new 0 0 360 360" xml:space="preserve">
<g id="brown_background_for_context" display="none">
	<rect x="-1974.331" y="-440.372" display="inline" fill="#3B3234" width="2375.952" height="1245.126"/>
</g>
<g id="white_imagery__x2B__text">
</g>
<g id="Donations-Dollar_sign_copy">
</g>
<g id="Donations-Banknote">
</g>
<g id="Education-Brain">
</g>
<g id="Education-Book">
</g>
<g id="Social_Media-Connected_copy">
</g>
<g id="Social_Media-Wifi_copy">
</g>
<g id="Social_Media-Hashtag_copy">
</g>
<g id="Legislators-Capitol_Building">
</g>
<g id="Legislators-Gavel">
</g>
<g id="Community-Pin">
</g>
<g id="Community-Pin_copy">
</g>
<g id="Community-Houses_1_">
</g>
<g id="At_Home-Trowel">
</g>
<g id="At_Home-House">
	<g>
		<circle fill="#F27243" cx="178.116" cy="184.707" r="119.117"/>
		<g>
			<path fill="#FFFFFF" d="M108.079,120.573c0,0,20.033-11.966,70.03,0c33.81,8.092,66.462-7.85,66.462-7.85v64.676
				c0,0-23.951,21.358-68.246,7.851c-37.712-11.502-68.246,2.229-68.246,2.229V120.573z"/>
			
				<ellipse transform="matrix(0.9938 0.1114 -0.1114 0.9938 18.1759 -19.149)" fill="#F27243" cx="180.375" cy="153.008" rx="19.904" ry="26.623"/>
			<g>
				<path fill="#FFFFFF" d="M187.83,159.724c-0.446,3.647-3.276,6.368-7.682,6.46l-0.24,2.135l-3.256-0.365l0.241-2.134
					c-2.917-0.766-5.38-2.654-6.784-4.825l3.709-3.686c1.226,1.821,3.32,3.375,5.237,3.59c1.809,0.203,3.012-0.724,3.162-2.062
					c0.494-4.411-10.626-4.522-9.631-12.761c0.382-3.401,3.238-6.009,7.215-6.188l0.256-2.277l3.254,0.364l-0.252,2.243
					c2.664,0.738,4.744,2.436,6.023,4.081l-3.486,3.673c-1.032-1.249-2.783-2.618-4.482-2.809c-1.63-0.183-2.779,0.604-2.921,1.87
					C177.747,151.011,188.819,151.558,187.83,159.724z"/>
			</g>
		</g>
		<g>
			<rect x="64.799" y="212.072" fill="none" width="226.633" height="80.098"/>
			<path fill="#FFFFFF" d="M136.635,222.993h-2.885v11.48h-2.632v-11.48h-1.792v-2.52h1.792v-3.752h2.632v3.752h2.885V222.993z"/>
			<path fill="#FFFFFF" d="M151.25,226.438v8.036h-2.632v-7.645c0-2.771-1.428-4.228-3.416-4.228c-1.96,0-3.416,1.456-3.416,4.228
				l-0.028-0.111v7.756h-2.632v-22.4h2.632v10.389c0.812-1.316,2.296-2.268,4.256-2.268
				C148.758,220.194,151.25,222.266,151.25,226.438z"/>
			<path fill="#FFFFFF" d="M161.861,220.194v3.107c-1.987-0.336-4.031,0.729-4.031,3.752l-0.028-0.111v7.531h-2.632v-14h2.632v2.408
				C158.558,221.454,159.985,220.194,161.861,220.194z"/>
			<path fill="#FFFFFF" d="M162.926,227.474c0-3.893,2.912-7.225,7.14-7.225c4.229,0,7.141,3.332,7.141,7.225
				s-2.912,7.225-7.141,7.225C165.838,234.698,162.926,231.366,162.926,227.474z M174.489,227.446c0-2.465-1.735-4.564-4.424-4.564
				c-2.632,0-4.452,2.1-4.452,4.564c0,2.491,1.82,4.619,4.452,4.619C172.754,232.065,174.489,229.938,174.489,227.446z"/>
			<path fill="#FFFFFF" d="M192.381,220.474v14h-2.632v-1.96c-0.812,1.315-2.296,2.239-4.228,2.239
				c-2.744,0-5.236-2.071-5.236-6.243v-8.036h2.632v7.645c0,2.771,1.428,4.228,3.416,4.228c1.96,0,3.416-1.456,3.416-4.228v-7.645
				H192.381z"/>
			<path fill="#FFFFFF" d="M209.629,233.886c0,4.283-3.332,6.384-6.664,6.384c-2.128,0-3.779-0.616-5.319-1.483l0.027-2.772
				c1.568,1.092,3.36,1.765,5.013,1.765c2.575,0,4.367-1.457,4.367-4.564v-1.064c-1.092,1.512-2.744,2.52-4.844,2.52
				c-3.892,0-6.552-3.163-6.552-7.195c0-4.031,2.66-7.195,6.552-7.195c2.072,0,3.724,0.979,4.788,2.463v-2.268h2.604
				L209.629,233.886z M206.997,227.474c0-2.464-1.82-4.62-4.34-4.62c-2.521,0-4.284,2.072-4.284,4.62
				c0,2.576,1.764,4.648,4.284,4.648C205.177,232.122,206.997,229.938,206.997,227.474z"/>
			<path fill="#FFFFFF" d="M225.897,226.438v8.036h-2.633v-7.645c0-2.771-1.428-4.228-3.415-4.228c-1.961,0-3.416,1.456-3.416,4.228
				l-0.028-0.111v7.756h-2.632v-22.4h2.632v10.389c0.812-1.316,2.296-2.268,4.256-2.268
				C223.405,220.194,225.897,222.266,225.897,226.438z"/>
			<path fill="#FFFFFF" d="M129.158,244.073v22.4h-2.631v-2.24c-1.092,1.456-2.717,2.436-4.789,2.436
				c-3.892,0-6.551-3.163-6.551-7.195c0-4.031,2.659-7.195,6.551-7.195c2.072,0,3.697,0.979,4.789,2.436v-10.641H129.158z
				 M126.527,259.474c0-2.464-1.82-4.62-4.34-4.62c-2.521,0-4.285,2.072-4.285,4.62c0,2.576,1.765,4.648,4.285,4.648
				C124.707,264.122,126.527,261.938,126.527,259.474z"/>
			<path fill="#FFFFFF" d="M132.436,259.474c0-3.893,2.912-7.225,7.14-7.225s7.14,3.332,7.14,7.225s-2.912,7.225-7.14,7.225
				S132.436,263.366,132.436,259.474z M143.999,259.446c0-2.465-1.736-4.564-4.424-4.564c-2.632,0-4.452,2.1-4.452,4.564
				c0,2.491,1.82,4.619,4.452,4.619C142.263,264.065,143.999,261.938,143.999,259.446z"/>
			<path fill="#FFFFFF" d="M162.087,258.438v8.036h-2.632v-7.645c0-2.771-1.428-4.228-3.416-4.228c-1.96,0-3.416,1.456-3.416,4.228
				v7.645h-2.632v-14h2.632v1.96c0.812-1.315,2.296-2.239,4.228-2.239C159.595,252.194,162.087,254.266,162.087,258.438z"/>
			<path fill="#FFFFFF" d="M178.971,252.474v14h-2.632v-2.24c-1.092,1.456-2.716,2.436-4.788,2.436
				c-3.892,0-6.552-3.163-6.552-7.195c0-4.031,2.66-7.195,6.552-7.195c2.072,0,3.696,0.979,4.788,2.436v-2.24H178.971z
				 M176.339,259.474c0-2.464-1.82-4.62-4.34-4.62c-2.521,0-4.284,2.072-4.284,4.62c0,2.576,1.764,4.648,4.284,4.648
				C174.519,264.122,176.339,261.938,176.339,259.474z"/>
			<path fill="#FFFFFF" d="M189.219,254.993h-2.885v11.48h-2.632v-11.48h-1.792v-2.52h1.792v-3.752h2.632v3.752h2.885V254.993z"/>
			<path fill="#FFFFFF" d="M191.711,248.021c0-0.979,0.756-1.764,1.792-1.764s1.792,0.784,1.792,1.764
				c0,1.036-0.756,1.82-1.792,1.82S191.711,249.058,191.711,248.021z M192.187,252.474h2.632v14h-2.632V252.474z"/>
			<path fill="#FFFFFF" d="M198.599,259.474c0-3.893,2.912-7.225,7.14-7.225c4.229,0,7.141,3.332,7.141,7.225
				s-2.912,7.225-7.141,7.225C201.511,266.698,198.599,263.366,198.599,259.474z M210.162,259.446c0-2.465-1.735-4.564-4.424-4.564
				c-2.632,0-4.452,2.1-4.452,4.564c0,2.491,1.82,4.619,4.452,4.619C208.427,264.065,210.162,261.938,210.162,259.446z"/>
			<path fill="#FFFFFF" d="M228.25,258.438v8.036h-2.632v-7.645c0-2.771-1.428-4.228-3.416-4.228c-1.96,0-3.416,1.456-3.416,4.228
				v7.645h-2.632v-14h2.632v1.96c0.812-1.315,2.296-2.239,4.228-2.239C225.758,252.194,228.25,254.266,228.25,258.438z"/>
			<path fill="#FFFFFF" d="M231.33,264.485l1.652-1.959c0.867,0.84,2.071,1.623,3.388,1.623c1.176,0,2.044-0.615,2.044-1.539
				c0-2.717-6.692-1.709-6.664-6.469c0-2.128,1.764-3.893,4.508-3.893c1.96-0.027,3.612,1.009,4.48,1.988l-1.54,1.933
				c-0.616-0.56-1.736-1.372-2.912-1.372c-1.064,0-1.82,0.561-1.82,1.4c-0.028,2.52,6.692,1.596,6.692,6.467
				c-0.028,2.297-1.96,4.033-4.872,4.033C234.521,266.698,232.478,265.773,231.33,264.485z"/>
		</g>
	</g>
</g>
</svg>
