<?xml version="1.0" encoding="utf-8"?>
<!-- Generator: Adobe Illustrator 16.0.0, SVG Export Plug-In . SVG Version: 6.00 Build 0)  -->
<!DOCTYPE svg PUBLIC "-//W3C//DTD SVG 1.1//EN" "http://www.w3.org/Graphics/SVG/1.1/DTD/svg11.dtd">
<svg version="1.1" xmlns="http://www.w3.org/2000/svg" xmlns:xlink="http://www.w3.org/1999/xlink" x="0px" y="0px" width="360px"
	 height="360px" viewBox="0 0 360 360" enable-background="new 0 0 360 360" xml:space="preserve">
<g id="brown_background_for_context" display="none">
	<rect x="-829.302" y="-440.372" display="inline" fill="#3B3234" width="2375.952" height="1245.126"/>
</g>
<g id="white_imagery__x2B__text">
</g>
<g id="Donations-Dollar_sign_copy">
</g>
<g id="Donations-Banknote">
</g>
<g id="Education-Brain">
</g>
<g id="Education-Book">
</g>
<g id="Social_Media-Connected_copy">
</g>
<g id="Social_Media-Wifi_copy">
</g>
<g id="Social_Media-Hashtag_copy">
</g>
<g id="Legislators-Capitol_Building">
</g>
<g id="Legislators-Gavel">
</g>
<g id="Community-Pin">
</g>
<g id="Community-Pin_copy">
</g>
<g id="Community-Houses_1_">
</g>
<g id="At_Home-Trowel">
</g>
<g id="At_Home-House">
	<circle fill="#5C5052" cx="179.292" cy="180.001" r="119.117"/>
	<path fill="#FFFFFF" d="M249.359,126.906V237.73h-57.251c0,0-0.519,4.775-10.734,4.775c-10.217,0-10.301-4.041-10.301-4.041
		h-58.594V126.906H249.359z"/>
	
		<path fill="#5C5052" stroke="#FFFFFF" stroke-width="5" stroke-linecap="round" stroke-linejoin="round" stroke-miterlimit="10" d="
		M181.649,125.9c0,0,0-9.082-10.576-9.082c-8.14,0-53.277,0-53.277,0v116.146h56.697c0,0,6.947,0.551,6.947,5.505
		c0,0,1.86-5.505,6.814-5.505h56.696V116.818h-52.844C192.107,116.818,181.649,116.818,181.649,125.9z"/>
	<line fill="none" stroke="#FFFFFF" stroke-width="3" stroke-miterlimit="10" x1="190.181" y1="189.18" x2="231.19" y2="189.18"/>
	<line fill="none" stroke="#FFFFFF" stroke-width="3" stroke-miterlimit="10" x1="190.181" y1="200.548" x2="231.19" y2="200.548"/>
	<line fill="none" stroke="#FFFFFF" stroke-width="3" stroke-miterlimit="10" x1="190.181" y1="211.916" x2="231.19" y2="211.916"/>
	<line fill="none" stroke="#FFFFFF" stroke-width="3" stroke-miterlimit="10" x1="190.181" y1="155.075" x2="231.19" y2="155.075"/>
	<line fill="none" stroke="#FFFFFF" stroke-width="3" stroke-miterlimit="10" x1="190.181" y1="166.443" x2="231.19" y2="166.443"/>
	<line fill="none" stroke="#FFFFFF" stroke-width="3" stroke-miterlimit="10" x1="190.181" y1="177.812" x2="231.19" y2="177.812"/>
	<rect x="132.96" y="136.717" fill="#FFFFFF" width="34.892" height="23.114"/>
</g>
</svg>
