<?xml version="1.0" encoding="utf-8"?>
<!-- Generator: Adobe Illustrator 16.0.0, SVG Export Plug-In . SVG Version: 6.00 Build 0)  -->
<!DOCTYPE svg PUBLIC "-//W3C//DTD SVG 1.1//EN" "http://www.w3.org/Graphics/SVG/1.1/DTD/svg11.dtd">
<svg version="1.1" xmlns="http://www.w3.org/2000/svg" xmlns:xlink="http://www.w3.org/1999/xlink" x="0px" y="0px" width="360px"
	 height="360px" viewBox="0 0 360 360" enable-background="new 0 0 360 360" xml:space="preserve">
<g id="brown_background_for_context" display="none">
	<rect x="-829.302" y="-45.203" display="inline" fill="#3B3234" width="2375.952" height="1245.126"/>
</g>
<g id="white_imagery__x2B__text">
</g>
<g id="Donations-Dollar_sign_copy">
</g>
<g id="Donations-Banknote">
</g>
<g id="Education-Brain">
</g>
<g id="Education-Book">
</g>
<g id="Social_Media-Connected_copy">
</g>
<g id="Social_Media-Wifi_copy">
</g>
<g id="Social_Media-Hashtag_copy">
</g>
<g id="Legislators-Capitol_Building">
</g>
<g id="Legislators-Gavel">
</g>
<g id="Community-Pin">
	<g>
		<circle fill="#FFCE01" cx="180" cy="184.166" r="119.116"/>
	</g>
	<circle fill="#FFFFFF" cx="122.013" cy="140.335" r="13.25"/>
	<g>
		<path fill="#FFFFFF" d="M142.798,198.034c0,5.504-4.504,10.008-10.008,10.008h-22.748c-5.504,0-10.008-4.504-10.008-10.008V166.38
			c0-5.504,4.504-10.008,10.008-10.008h22.748c5.504,0,10.008,4.503,10.008,10.008V198.034z"/>
	</g>
	<g>
		<path fill="#FFFFFF" d="M135.263,234.546c0,5.504-4.504,10.008-10.008,10.008h-6.483c-5.504,0-10.008-4.504-10.008-10.008v-31.655
			c0-5.504,4.504-10.008,10.008-10.008h6.483c5.504,0,10.008,4.504,10.008,10.008V234.546z"/>
	</g>
	<circle fill="#FFFFFF" cx="238.855" cy="140.335" r="13.249"/>
	<g>
		<path fill="#FFFFFF" d="M259.641,198.034c0,5.504-4.504,10.008-10.008,10.008h-22.749c-5.504,0-10.008-4.504-10.008-10.008V166.38
			c0-5.504,4.504-10.008,10.008-10.008h22.749c5.504,0,10.008,4.503,10.008,10.008V198.034z"/>
	</g>
	<g>
		<path fill="#FFFFFF" d="M252.104,234.546c0,5.504-4.504,10.008-10.008,10.008h-6.482c-5.504,0-10.008-4.504-10.008-10.008v-31.655
			c0-5.504,4.504-10.008,10.008-10.008h6.482c5.504,0,10.008,4.504,10.008,10.008V234.546z"/>
	</g>
	<circle fill="#FFFFFF" cx="179.977" cy="133.779" r="15.213"/>
	<g>
		<path fill="#FFFFFF" d="M203.844,201.517c0,5.504-4.504,10.008-10.008,10.008h-29.089c-5.504,0-10.008-4.504-10.008-10.008
			v-39.316c0-5.504,4.504-10.008,10.008-10.008h29.089c5.504,0,10.008,4.503,10.008,10.008V201.517z"/>
	</g>
	<g>
		<path fill="#FFFFFF" d="M195.19,243.439c0,5.504-4.504,10.008-10.008,10.008h-10.411c-5.504,0-10.008-4.504-10.008-10.008v-39.315
			c0-5.504,4.504-10.008,10.008-10.008h10.411c5.504,0,10.008,4.504,10.008,10.008V243.439z"/>
	</g>
	<rect x="107.993" y="184.166" fill="#FFCE01" width="0.771" height="26.284"/>
	<rect x="135.263" y="184.166" fill="#FFCE01" width="0.771" height="27.357"/>
	<rect x="121.627" y="208.041" fill="#FFCE01" width="0.771" height="39.409"/>
	<rect x="224.834" y="184.166" fill="#FFCE01" width="0.771" height="26.284"/>
	<rect x="252.104" y="184.166" fill="#FFCE01" width="0.771" height="27.357"/>
	<rect x="238.468" y="208.041" fill="#FFCE01" width="0.771" height="39.409"/>
	<rect x="163.883" y="181.952" fill="#FFCE01" width="0.88" height="30.043"/>
	<rect x="195.257" y="181.952" fill="#FFCE01" width="0.881" height="31.27"/>
	<rect x="179.671" y="211.523" fill="#FFCE01" width="0.881" height="42.762"/>
</g>
<g id="Community-Pin_copy">
</g>
<g id="Community-Houses_1_">
</g>
<g id="At_Home-Trowel">
</g>
<g id="At_Home-House">
</g>
</svg>
