<?xml version="1.0" encoding="utf-8"?>
<!-- Generator: Adobe Illustrator 16.0.0, SVG Export Plug-In . SVG Version: 6.00 Build 0)  -->
<!DOCTYPE svg PUBLIC "-//W3C//DTD SVG 1.1//EN" "http://www.w3.org/Graphics/SVG/1.1/DTD/svg11.dtd">
<svg version="1.1" xmlns="http://www.w3.org/2000/svg" xmlns:xlink="http://www.w3.org/1999/xlink" x="0px" y="0px" width="360px"
	 height="360px" viewBox="0 0 360 360" enable-background="new 0 0 360 360" xml:space="preserve">
<g id="brown_background_for_context" display="none">
	<rect x="-1974.331" y="-45.203" display="inline" fill="#3B3234" width="2375.952" height="1245.126"/>
</g>
<g id="white_imagery__x2B__text">
</g>
<g id="Donations-Dollar_sign_copy">
</g>
<g id="Donations-Banknote">
</g>
<g id="Education-Brain">
</g>
<g id="Education-Book">
</g>
<g id="Social_Media-Connected_copy">
</g>
<g id="Social_Media-Wifi_copy">
</g>
<g id="Social_Media-Hashtag_copy">
</g>
<g id="Legislators-Capitol_Building">
</g>
<g id="Legislators-Gavel">
</g>
<g id="Community-Pin">
</g>
<g id="Community-Pin_copy">
</g>
<g id="Community-Houses_1_">
</g>
<g id="At_Home-Trowel">
</g>
<g id="At_Home-House">
	<g>
		<g>
			<circle fill="#3DAAA1" cx="178.117" cy="184.166" r="119.117"/>
		</g>
		<g>
			<path fill="#FFFFFF" d="M151.108,101.693l39.117,16.191c0,0,2.638,1.729,4.095-1.272c1.453-3.002,2.818-6.576,2.818-6.576
				s1.091-2.544-1.728-3.897c-2.821-1.354-39.209-16.271-39.209-16.271s-2.638-1.092-3.999,1.638
				c-1.368,2.729-2.457,5.73-2.457,5.73S148.11,100.451,151.108,101.693z"/>
			<path fill="#FFFFFF" d="M130.096,152.727l39.116,16.191c0,0,2.637,1.729,4.093-1.272c1.454-3.002,2.821-6.576,2.821-6.576
				s1.091-2.545-1.729-3.899c-2.82-1.352-39.207-16.271-39.207-16.271s-2.639-1.09-4.004,1.638
				c-1.364,2.729-2.455,5.731-2.455,5.731S127.096,151.483,130.096,152.727z"/>
			<path fill="#FFFFFF" d="M241.259,149.906l-58.152-18.681l4.207-10.065l-36.023-15.022l-12.917,31.736l35.842,14.609l4.419-10.568
				l54.983,28.64c0,0,14.676,6.835,18.382-4.309C255.724,155.048,241.259,149.906,241.259,149.906z"/>
			<path fill="#FFFFFF" d="M183.312,191.206v-6.369c0,0-0.544-3.274-3.82-3.274c-2.254,0-13.384,0-20.104,0h-5.184h-6.733h-2.547
				c-5.889,0-20.156,0-22.742,0c-3.274,0-3.818,3.274-3.818,3.274v6.369c0,0-4.732-0.094-4.732,5.094
				c0,3.638,3.275,4.365,3.275,4.365h28.018h2.547h6.733h5.184h25.38c0,0,3.273-0.728,3.273-4.365
				C188.04,191.112,183.312,191.206,183.312,191.206z"/>
		</g>
		<g>
			<rect x="64.8" y="216.238" fill="none" width="226.633" height="80.098"/>
			<path fill="#FFFFFF" d="M141.395,224.64l-7.141,14.056h-1.959l-2.549-5.152l-2.52,5.152h-1.988l-7.111-14.056h2.8l5.376,10.836
				l2.156-4.368l-3.248-6.468h2.688l1.848,4.032l1.877-4.032h2.688l-3.275,6.44l2.211,4.396l5.349-10.836H141.395z"/>
			<path fill="#FFFFFF" d="M143.187,220.188c0-0.98,0.756-1.764,1.792-1.764s1.792,0.783,1.792,1.764c0,1.036-0.756,1.82-1.792,1.82
				S143.187,221.224,143.187,220.188z M143.662,224.64h2.632v14h-2.632V224.64z"/>
			<path fill="#FFFFFF" d="M157.019,227.16h-2.885v11.479h-2.632V227.16h-1.792v-2.521h1.792v-3.752h2.632v3.752h2.885V227.16z"/>
			<path fill="#FFFFFF" d="M171.635,230.604v8.036h-2.633v-7.644c0-2.772-1.428-4.229-3.415-4.229c-1.961,0-3.416,1.456-3.416,4.229
				l-0.028-0.112v7.756h-2.632V216.24h2.632v10.388c0.812-1.316,2.296-2.269,4.256-2.269
				C169.143,224.359,171.635,226.432,171.635,230.604z"/>
			<path fill="#FFFFFF" d="M196.75,224.64l-8.203,19.601h-2.688l2.464-5.713l-5.824-13.888h2.856l4.284,10.92l4.256-10.92H196.75z"
				/>
			<path fill="#FFFFFF" d="M197.508,231.64c0-3.892,2.912-7.224,7.14-7.224c4.229,0,7.141,3.332,7.141,7.224
				s-2.912,7.224-7.141,7.224C200.42,238.863,197.508,235.531,197.508,231.64z M209.071,231.611c0-2.464-1.735-4.563-4.424-4.563
				c-2.632,0-4.452,2.1-4.452,4.563c0,2.492,1.82,4.62,4.452,4.62C207.336,236.231,209.071,234.104,209.071,231.611z"/>
			<path fill="#FFFFFF" d="M226.963,224.64v14h-2.632v-1.96c-0.812,1.316-2.296,2.24-4.228,2.24c-2.744,0-5.236-2.072-5.236-6.244
				v-8.036h2.632v7.644c0,2.772,1.428,4.229,3.416,4.229c1.96,0,3.416-1.456,3.416-4.229v-7.644H226.963z"/>
			<path fill="#FFFFFF" d="M237.799,224.359v3.108c-1.987-0.336-4.031,0.728-4.031,3.752l-0.028-0.112v7.532h-2.632v-14h2.632v2.408
				C234.495,225.619,235.923,224.359,237.799,224.359z"/>
			<path fill="#FFFFFF" d="M115.523,248.24h2.632v22.399h-2.632V248.24z"/>
			<path fill="#FFFFFF" d="M134.871,264.703h-10.696c0.42,2.213,2.156,3.612,4.563,3.612c1.849,0,3.276-0.588,4.621-1.512v2.66
				c-1.177,0.868-2.856,1.399-4.761,1.399c-4.452,0-7.14-3.304-7.14-7.224c0-3.892,2.744-7.196,6.859-7.196
				C132.688,256.443,135.179,260.279,134.871,264.703z M124.203,262.52h7.896c-0.392-2.044-1.819-3.443-3.836-3.443
				C126.135,259.076,124.623,260.504,124.203,262.52z"/>
			<path fill="#FFFFFF" d="M151.194,270.052c0,4.284-3.332,6.384-6.664,6.384c-2.128,0-3.779-0.615-5.319-1.484l0.027-2.771
				c1.568,1.092,3.36,1.764,5.013,1.764c2.575,0,4.367-1.455,4.367-4.563v-1.064c-1.092,1.513-2.743,2.521-4.844,2.521
				c-3.892,0-6.552-3.164-6.552-7.196s2.66-7.196,6.552-7.196c2.072,0,3.724,0.98,4.788,2.465v-2.269h2.604L151.194,270.052z
				 M148.562,263.64c0-2.464-1.82-4.62-4.34-4.62c-2.521,0-4.284,2.072-4.284,4.62c0,2.576,1.764,4.647,4.284,4.647
				C146.742,268.287,148.562,266.104,148.562,263.64z"/>
			<path fill="#FFFFFF" d="M155.339,252.188c0-0.98,0.756-1.764,1.792-1.764s1.792,0.783,1.792,1.764c0,1.036-0.756,1.82-1.792,1.82
				S155.339,253.224,155.339,252.188z M155.814,256.64h2.632v14h-2.632V256.64z"/>
			<path fill="#FFFFFF" d="M162.143,268.652l1.652-1.961c0.867,0.84,2.071,1.624,3.388,1.624c1.176,0,2.044-0.616,2.044-1.54
				c0-2.716-6.692-1.707-6.664-6.468c0-2.128,1.764-3.892,4.508-3.892c1.96-0.028,3.612,1.008,4.48,1.988l-1.54,1.932
				c-0.616-0.561-1.736-1.372-2.912-1.372c-1.064,0-1.82,0.56-1.82,1.399c-0.028,2.521,6.692,1.596,6.692,6.469
				c-0.028,2.295-1.96,4.031-4.872,4.031C165.334,270.863,163.29,269.939,162.143,268.652z"/>
			<path fill="#FFFFFF" d="M175.135,248.24h2.632v22.399h-2.632V248.24z"/>
			<path fill="#FFFFFF" d="M195.042,256.64v14h-2.632v-2.24c-1.092,1.456-2.716,2.437-4.788,2.437c-3.892,0-6.552-3.164-6.552-7.196
				s2.66-7.196,6.552-7.196c2.072,0,3.696,0.98,4.788,2.437v-2.24H195.042z M192.41,263.64c0-2.464-1.82-4.62-4.34-4.62
				c-2.521,0-4.284,2.072-4.284,4.62c0,2.576,1.764,4.647,4.284,4.647C190.59,268.287,192.41,266.104,192.41,263.64z"/>
			<path fill="#FFFFFF" d="M205.29,259.16h-2.885v11.479h-2.632V259.16h-1.792v-2.521h1.792v-3.752h2.632v3.752h2.885V259.16z"/>
			<path fill="#FFFFFF" d="M206.354,263.64c0-3.892,2.912-7.224,7.14-7.224c4.229,0,7.141,3.332,7.141,7.224
				s-2.912,7.224-7.141,7.224C209.267,270.863,206.354,267.531,206.354,263.64z M217.918,263.611c0-2.464-1.735-4.563-4.424-4.563
				c-2.632,0-4.452,2.1-4.452,4.563c0,2.492,1.82,4.62,4.452,4.62C216.183,268.231,217.918,266.104,217.918,263.611z"/>
			<path fill="#FFFFFF" d="M230.602,256.359v3.108c-1.987-0.336-4.031,0.728-4.031,3.752l-0.028-0.112v7.532h-2.632v-14h2.632v2.408
				C227.298,257.619,228.726,256.359,230.602,256.359z"/>
			<path fill="#FFFFFF" d="M231.861,268.652l1.652-1.961c0.867,0.84,2.071,1.624,3.388,1.624c1.176,0,2.044-0.616,2.044-1.54
				c0-2.716-6.692-1.707-6.664-6.468c0-2.128,1.764-3.892,4.508-3.892c1.96-0.028,3.612,1.008,4.48,1.988l-1.54,1.932
				c-0.616-0.561-1.736-1.372-2.912-1.372c-1.064,0-1.82,0.56-1.82,1.399c-0.028,2.521,6.692,1.596,6.692,6.469
				c-0.028,2.295-1.96,4.031-4.872,4.031C235.053,270.863,233.009,269.939,231.861,268.652z"/>
		</g>
	</g>
</g>
</svg>
