<?xml version="1.0" encoding="utf-8"?>
<!-- Generator: Adobe Illustrator 16.0.0, SVG Export Plug-In . SVG Version: 6.00 Build 0)  -->
<!DOCTYPE svg PUBLIC "-//W3C//DTD SVG 1.1//EN" "http://www.w3.org/Graphics/SVG/1.1/DTD/svg11.dtd">
<svg version="1.1" xmlns="http://www.w3.org/2000/svg" xmlns:xlink="http://www.w3.org/1999/xlink" x="0px" y="0px" width="360px"
	 height="360px" viewBox="0 0 360 360" enable-background="new 0 0 360 360" xml:space="preserve">
<g id="brown_background_for_context" display="none">
	<rect x="-444.329" y="-440.372" display="inline" fill="#3B3234" width="2375.952" height="1245.126"/>
</g>
<g id="white_imagery__x2B__text">
</g>
<g id="Donations-Dollar_sign_copy">
</g>
<g id="Donations-Banknote">
</g>
<g id="Education-Brain">
</g>
<g id="Education-Book">
</g>
<g id="Social_Media-Connected_copy">
</g>
<g id="Social_Media-Wifi_copy">
</g>
<g id="Social_Media-Hashtag_copy">
</g>
<g id="Legislators-Capitol_Building">
</g>
<g id="Legislators-Gavel">
</g>
<g id="Community-Pin">
</g>
<g id="Community-Pin_copy">
</g>
<g id="Community-Houses_1_">
</g>
<g id="At_Home-Trowel">
</g>
<g id="At_Home-House">
	<g>
		<circle fill="#2E61A1" cx="169.087" cy="180.001" r="119.117"/>
		<g>
			<polyline fill="none" stroke="#FFFFFF" stroke-width="12" stroke-miterlimit="10" points="192.676,102.78 119.441,146.008 
				192.676,184.979 			"/>
			<circle fill="#FFFFFF" stroke="#FFFFFF" stroke-width="7" stroke-miterlimit="10" cx="194.902" cy="101.417" r="11.568"/>
			<circle fill="#FFFFFF" stroke="#FFFFFF" stroke-width="7" stroke-miterlimit="10" cx="194.902" cy="187.071" r="11.569"/>
			<circle fill="#FFFFFF" stroke="#FFFFFF" stroke-width="7" stroke-miterlimit="10" cx="115.244" cy="145.12" r="11.568"/>
		</g>
		<g>
			<rect x="55.771" y="212.072" fill="none" width="226.633" height="80.098"/>
			<path fill="#FFFFFF" d="M111.955,227.474c0-3.893,2.912-7.225,7.139-7.225c4.229,0,7.141,3.332,7.141,7.225
				s-2.912,7.225-7.141,7.225C114.867,234.698,111.955,231.366,111.955,227.474z M123.519,227.446c0-2.465-1.736-4.564-4.425-4.564
				c-2.631,0-4.451,2.1-4.451,4.564c0,2.491,1.82,4.619,4.451,4.619C121.782,232.065,123.519,229.938,123.519,227.446z"/>
			<path fill="#FFFFFF" d="M141.606,226.438v8.036h-2.632v-7.645c0-2.771-1.428-4.228-3.416-4.228c-1.96,0-3.416,1.456-3.416,4.228
				v7.645h-2.632v-14h2.632v1.96c0.812-1.315,2.296-2.239,4.228-2.239C139.114,220.194,141.606,222.266,141.606,226.438z"/>
			<path fill="#FFFFFF" d="M154.011,232.485l1.652-1.959c0.867,0.84,2.071,1.623,3.388,1.623c1.176,0,2.044-0.615,2.044-1.539
				c0-2.717-6.692-1.709-6.664-6.469c0-2.128,1.764-3.893,4.508-3.893c1.96-0.027,3.612,1.009,4.48,1.988l-1.54,1.933
				c-0.616-0.56-1.736-1.372-2.912-1.372c-1.064,0-1.82,0.561-1.82,1.4c-0.028,2.52,6.692,1.596,6.692,6.467
				c-0.028,2.297-1.96,4.033-4.872,4.033C157.202,234.698,155.158,233.773,154.011,232.485z"/>
			<path fill="#FFFFFF" d="M165.939,227.474c0-3.893,2.912-7.225,7.14-7.225c4.229,0,7.141,3.332,7.141,7.225
				s-2.912,7.225-7.141,7.225C168.852,234.698,165.939,231.366,165.939,227.474z M177.503,227.446c0-2.465-1.735-4.564-4.424-4.564
				c-2.632,0-4.452,2.1-4.452,4.564c0,2.491,1.82,4.619,4.452,4.619C175.768,232.065,177.503,229.938,177.503,227.446z"/>
			<path fill="#FFFFFF" d="M182.627,227.474c0-3.893,2.8-7.225,7.14-7.225c1.933,0,3.276,0.533,4.368,1.4v3.053
				c-0.84-0.953-2.352-1.82-4.144-1.82c-2.772,0-4.677,2.044-4.677,4.592c0,2.52,1.904,4.592,4.677,4.592
				c1.792,0,3.304-0.867,4.144-1.82v3.053c-1.092,0.867-2.436,1.4-4.368,1.4C185.427,234.698,182.627,231.366,182.627,227.474z"/>
			<path fill="#FFFFFF" d="M197.663,216.021c0-0.979,0.756-1.764,1.792-1.764s1.792,0.784,1.792,1.764
				c0,1.036-0.756,1.82-1.792,1.82S197.663,217.058,197.663,216.021z M198.139,220.474h2.632v14h-2.632V220.474z"/>
			<path fill="#FFFFFF" d="M218.522,220.474v14h-2.632v-2.24c-1.092,1.456-2.716,2.436-4.788,2.436
				c-3.892,0-6.552-3.163-6.552-7.195c0-4.031,2.66-7.195,6.552-7.195c2.072,0,3.696,0.979,4.788,2.436v-2.24H218.522z
				 M215.891,227.474c0-2.464-1.82-4.62-4.34-4.62c-2.521,0-4.284,2.072-4.284,4.62c0,2.576,1.764,4.648,4.284,4.648
				C214.07,232.122,215.891,229.938,215.891,227.474z"/>
			<path fill="#FFFFFF" d="M222.694,212.073h2.632v22.4h-2.632V212.073z"/>
			<path fill="#FFFFFF" d="M150.763,258.325l-0.028,8.148h-2.632v-7.7c0-2.52-1.26-4.144-3.248-4.144
				c-2.017,0-3.276,1.624-3.276,4.228v7.616h-2.632v-7.7c0-2.52-1.288-4.144-3.276-4.144c-1.987,0-3.247,1.624-3.247,4.228
				l-0.028-0.084v7.7h-2.632v-14h2.632v1.904c0.784-1.232,2.184-2.184,4.088-2.184c1.82,0,3.528,0.951,4.424,2.827
				c0.868-1.54,2.437-2.827,4.704-2.827C148.494,252.194,150.763,254.266,150.763,258.325z"/>
			<path fill="#FFFFFF" d="M167.059,260.538h-10.696c0.42,2.211,2.156,3.611,4.564,3.611c1.848,0,3.275-0.588,4.619-1.512v2.66
				c-1.176,0.867-2.855,1.4-4.76,1.4c-4.452,0-7.14-3.305-7.14-7.225c0-3.893,2.744-7.195,6.86-7.195
				C164.874,252.278,167.366,256.114,167.059,260.538z M156.391,258.354h7.896c-0.392-2.044-1.819-3.444-3.836-3.444
				C158.322,254.909,156.811,256.338,156.391,258.354z"/>
			<path fill="#FFFFFF" d="M183.382,244.073v22.4h-2.632v-2.24c-1.092,1.456-2.716,2.436-4.788,2.436
				c-3.892,0-6.552-3.163-6.552-7.195c0-4.031,2.66-7.195,6.552-7.195c2.072,0,3.696,0.979,4.788,2.436v-10.641H183.382z
				 M180.75,259.474c0-2.464-1.82-4.62-4.34-4.62c-2.521,0-4.284,2.072-4.284,4.62c0,2.576,1.764,4.648,4.284,4.648
				C178.93,264.122,180.75,261.938,180.75,259.474z"/>
			<path fill="#FFFFFF" d="M187.526,248.021c0-0.979,0.756-1.764,1.792-1.764s1.792,0.784,1.792,1.764
				c0,1.036-0.756,1.82-1.792,1.82S187.526,249.058,187.526,248.021z M188.002,252.474h2.632v14h-2.632V252.474z"/>
			<path fill="#FFFFFF" d="M208.386,252.474v14h-2.632v-2.24c-1.092,1.456-2.716,2.436-4.788,2.436
				c-3.892,0-6.552-3.163-6.552-7.195c0-4.031,2.66-7.195,6.552-7.195c2.072,0,3.696,0.979,4.788,2.436v-2.24H208.386z
				 M205.754,259.474c0-2.464-1.82-4.62-4.34-4.62c-2.521,0-4.284,2.072-4.284,4.62c0,2.576,1.764,4.648,4.284,4.648
				C203.934,264.122,205.754,261.938,205.754,259.474z"/>
		</g>
	</g>
</g>
</svg>
