<svg xmlns="http://www.w3.org/2000/svg" viewBox="0 0 85.26 85.26"><defs><style>.cls-1,.cls-3{fill:none;stroke:#fff;stroke-miterlimit:10;}.cls-1{stroke-width:1.5px;}.cls-2{fill:#5f5353;}</style></defs><title>Asset 59aboutus_staff_gray</title><g id="Layer_2" data-name="Layer 2"><g id="Layer_1-2" data-name="Layer 1"><circle class="cls-1" cx="42.63" cy="42.63" r="41.88"/><circle class="cls-2" cx="42.63" cy="42.63" r="37.57"/><path class="cls-3" d="M23.4,40.25a8.53,8.53,0,0,1-7.34-3.75,7.31,7.31,0,0,0-3.19,6c0,.24,0,.49,0,.72V57.19H27.49V43.26c0-.24,0-.48,0-.72a7.29,7.29,0,0,0-.62-2.94A9.58,9.58,0,0,1,23.4,40.25Z"/><path class="cls-3" d="M61.85,40.25a8.53,8.53,0,0,0,7.34-3.75,7.31,7.31,0,0,1,3.19,6c0,.24,0,.49,0,.72V57.19H57.77V43.26c0-.24,0-.48,0-.72a7.29,7.29,0,0,1,.62-2.94A9.58,9.58,0,0,0,61.85,40.25Z"/><circle class="cls-3" cx="60.02" cy="28.35" r="7.32"/><circle class="cls-3" cx="24.32" cy="28.35" r="7.32"/><circle class="cls-3" cx="42.63" cy="26.52" r="8.24"/><path class="cls-3" d="M55.44,39.43a4.06,4.06,0,0,0-4-4.12H49.53a10.27,10.27,0,0,1-14.72,0h-1a4.06,4.06,0,0,0-4,4.12v2.19s0,.09,0,.13h0v19H55.44v-19h0s0-.09,0-.13Z"/></g></g></svg>