<?xml version="1.0" encoding="utf-8"?>
<!-- Generator: Adobe Illustrator 16.0.0, SVG Export Plug-In . SVG Version: 6.00 Build 0)  -->
<!DOCTYPE svg PUBLIC "-//W3C//DTD SVG 1.1//EN" "http://www.w3.org/Graphics/SVG/1.1/DTD/svg11.dtd">
<svg version="1.1" xmlns="http://www.w3.org/2000/svg" xmlns:xlink="http://www.w3.org/1999/xlink" x="0px" y="0px" width="360px"
	 height="360px" viewBox="0 0 360 360" enable-background="new 0 0 360 360" xml:space="preserve">
<g id="brown_background_for_context" display="none">
	<rect x="-1210.979" y="-440.372" display="inline" fill="#3B3234" width="2375.952" height="1245.126"/>
</g>
<g id="white_imagery__x2B__text">
</g>
<g id="Donations-Dollar_sign_copy">
</g>
<g id="Donations-Banknote">
</g>
<g id="Education-Brain">
</g>
<g id="Education-Book">
</g>
<g id="Social_Media-Connected_copy">
</g>
<g id="Social_Media-Wifi_copy">
</g>
<g id="Social_Media-Hashtag_copy">
</g>
<g id="Legislators-Capitol_Building">
</g>
<g id="Legislators-Gavel">
</g>
<g id="Community-Pin">
</g>
<g id="Community-Pin_copy">
</g>
<g id="Community-Houses_1_">
</g>
<g id="At_Home-Trowel">
</g>
<g id="At_Home-House">
	<g>
		<circle fill="#5C5052" cx="181.024" cy="180.001" r="119.117"/>
		<g>
			<path fill="#FFFFFF" d="M234.967,103.295v88.062h-45.492c0,0-0.412,3.795-8.53,3.795s-8.185-3.211-8.185-3.211H126.2v-88.646
				H234.967z"/>
			
				<path fill="#5C5052" stroke="#FFFFFF" stroke-width="5" stroke-linecap="round" stroke-linejoin="round" stroke-miterlimit="10" d="
				M181.163,102.496c0,0,0-7.217-8.403-7.217c-6.468,0-42.335,0-42.335,0v92.291h45.053c0,0,5.52,0.438,5.52,4.374
				c0,0,1.479-4.374,5.415-4.374h45.052V95.279h-41.99C189.474,95.279,181.163,95.279,181.163,102.496z"/>
			
				<line fill="none" stroke="#FFFFFF" stroke-width="3" stroke-miterlimit="10" x1="187.942" y1="152.778" x2="220.529" y2="152.778"/>
			
				<line fill="none" stroke="#FFFFFF" stroke-width="3" stroke-miterlimit="10" x1="187.942" y1="161.812" x2="220.529" y2="161.812"/>
			
				<line fill="none" stroke="#FFFFFF" stroke-width="3" stroke-miterlimit="10" x1="187.942" y1="170.845" x2="220.529" y2="170.845"/>
			
				<line fill="none" stroke="#FFFFFF" stroke-width="3" stroke-miterlimit="10" x1="187.942" y1="125.679" x2="220.529" y2="125.679"/>
			
				<line fill="none" stroke="#FFFFFF" stroke-width="3" stroke-miterlimit="10" x1="187.942" y1="134.712" x2="220.529" y2="134.712"/>
			
				<line fill="none" stroke="#FFFFFF" stroke-width="3" stroke-miterlimit="10" x1="187.942" y1="143.745" x2="220.529" y2="143.745"/>
			<rect x="142.475" y="111.091" fill="#FFFFFF" width="27.725" height="18.367"/>
		</g>
		<g>
			<rect x="67.268" y="212.072" fill="none" width="226.633" height="80.098"/>
			<path fill="#FFFFFF" d="M136.569,216.021v4.452h2.855v2.52h-2.855v11.48h-2.66v-11.48h-1.792v-2.52h1.792v-5.096
				c0-2.184,1.176-3.444,3.08-3.444c0.98,0,1.848,0.308,2.436,0.588v2.688c-0.504-0.252-1.035-0.477-1.707-0.477
				S136.569,215.153,136.569,216.021z"/>
			<path fill="#FFFFFF" d="M140.489,227.474c0-3.893,2.912-7.225,7.141-7.225c4.228,0,7.14,3.332,7.14,7.225
				s-2.912,7.225-7.14,7.225C143.401,234.698,140.489,231.366,140.489,227.474z M152.054,227.446c0-2.465-1.736-4.564-4.424-4.564
				c-2.632,0-4.452,2.1-4.452,4.564c0,2.491,1.82,4.619,4.452,4.619C150.317,232.065,152.054,229.938,152.054,227.446z"/>
			<path fill="#FFFFFF" d="M164.737,220.194v3.107c-1.987-0.336-4.031,0.729-4.031,3.752l-0.028-0.111v7.531h-2.632v-14h2.632v2.408
				C161.434,221.454,162.861,220.194,164.737,220.194z"/>
			<path fill="#FFFFFF" d="M188.425,220.474l-8.204,19.6h-2.688l2.464-5.711l-5.824-13.889h2.856l4.284,10.92l4.256-10.92H188.425z"
				/>
			<path fill="#FFFFFF" d="M189.183,227.474c0-3.893,2.912-7.225,7.14-7.225c4.229,0,7.141,3.332,7.141,7.225
				s-2.912,7.225-7.141,7.225C192.095,234.698,189.183,231.366,189.183,227.474z M200.746,227.446c0-2.465-1.735-4.564-4.424-4.564
				c-2.632,0-4.452,2.1-4.452,4.564c0,2.491,1.82,4.619,4.452,4.619C199.011,232.065,200.746,229.938,200.746,227.446z"/>
			<path fill="#FFFFFF" d="M218.638,220.474v14h-2.632v-1.96c-0.812,1.315-2.296,2.239-4.228,2.239
				c-2.744,0-5.236-2.071-5.236-6.243v-8.036h2.632v7.645c0,2.771,1.428,4.228,3.416,4.228c1.96,0,3.416-1.456,3.416-4.228v-7.645
				H218.638z"/>
			<path fill="#FFFFFF" d="M229.474,220.194v3.107c-1.987-0.336-4.031,0.729-4.031,3.752l-0.028-0.111v7.531h-2.632v-14h2.632v2.408
				C226.17,221.454,227.598,220.194,229.474,220.194z"/>
			<path fill="#FFFFFF" d="M130.423,260.538h-10.695c0.42,2.211,2.156,3.611,4.564,3.611c1.848,0,3.275-0.588,4.619-1.512v2.66
				c-1.176,0.867-2.855,1.4-4.76,1.4c-4.451,0-7.14-3.305-7.14-7.225c0-3.893,2.743-7.195,6.86-7.195
				C128.239,252.278,130.731,256.114,130.423,260.538z M119.755,258.354h7.896c-0.392-2.044-1.82-3.444-3.836-3.444
				C121.688,254.909,120.176,256.338,119.755,258.354z"/>
			<path fill="#FFFFFF" d="M146.747,244.073v22.4h-2.632v-2.24c-1.092,1.456-2.716,2.436-4.788,2.436
				c-3.893,0-6.552-3.163-6.552-7.195c0-4.031,2.659-7.195,6.552-7.195c2.072,0,3.696,0.979,4.788,2.436v-10.641H146.747z
				 M144.115,259.474c0-2.464-1.82-4.62-4.34-4.62c-2.521,0-4.284,2.072-4.284,4.62c0,2.576,1.764,4.648,4.284,4.648
				C142.295,264.122,144.115,261.938,144.115,259.474z"/>
			<path fill="#FFFFFF" d="M162.791,252.474v14h-2.632v-1.96c-0.812,1.315-2.296,2.239-4.228,2.239
				c-2.744,0-5.236-2.071-5.236-6.243v-8.036h2.632v7.645c0,2.771,1.428,4.228,3.416,4.228c1.96,0,3.416-1.456,3.416-4.228v-7.645
				H162.791z"/>
			<path fill="#FFFFFF" d="M166.067,259.474c0-3.893,2.8-7.225,7.14-7.225c1.933,0,3.276,0.533,4.368,1.4v3.053
				c-0.84-0.953-2.352-1.82-4.144-1.82c-2.772,0-4.677,2.044-4.677,4.592c0,2.52,1.904,4.592,4.677,4.592
				c1.792,0,3.304-0.867,4.144-1.82v3.053c-1.092,0.867-2.436,1.4-4.368,1.4C168.867,266.698,166.067,263.366,166.067,259.474z"/>
			<path fill="#FFFFFF" d="M194.207,252.474v14h-2.632v-2.24c-1.092,1.456-2.716,2.436-4.788,2.436
				c-3.892,0-6.552-3.163-6.552-7.195c0-4.031,2.66-7.195,6.552-7.195c2.072,0,3.696,0.979,4.788,2.436v-2.24H194.207z
				 M191.575,259.474c0-2.464-1.82-4.62-4.34-4.62c-2.521,0-4.284,2.072-4.284,4.62c0,2.576,1.764,4.648,4.284,4.648
				C189.755,264.122,191.575,261.938,191.575,259.474z"/>
			<path fill="#FFFFFF" d="M204.455,254.993h-2.885v11.48h-2.632v-11.48h-1.792v-2.52h1.792v-3.752h2.632v3.752h2.885V254.993z"/>
			<path fill="#FFFFFF" d="M206.947,248.021c0-0.979,0.756-1.764,1.792-1.764s1.792,0.784,1.792,1.764
				c0,1.036-0.756,1.82-1.792,1.82S206.947,249.058,206.947,248.021z M207.423,252.474h2.632v14h-2.632V252.474z"/>
			<path fill="#FFFFFF" d="M213.835,259.474c0-3.893,2.912-7.225,7.14-7.225c4.229,0,7.141,3.332,7.141,7.225
				s-2.912,7.225-7.141,7.225C216.747,266.698,213.835,263.366,213.835,259.474z M225.398,259.446c0-2.465-1.735-4.564-4.424-4.564
				c-2.632,0-4.452,2.1-4.452,4.564c0,2.491,1.82,4.619,4.452,4.619C223.663,264.065,225.398,261.938,225.398,259.446z"/>
			<path fill="#FFFFFF" d="M243.486,258.438v8.036h-2.632v-7.645c0-2.771-1.428-4.228-3.416-4.228c-1.96,0-3.416,1.456-3.416,4.228
				v7.645h-2.632v-14h2.632v1.96c0.812-1.315,2.296-2.239,4.228-2.239C240.994,252.194,243.486,254.266,243.486,258.438z"/>
		</g>
	</g>
</g>
</svg>
