<?xml version="1.0" encoding="utf-8"?>
<!-- Generator: Adobe Illustrator 16.0.0, SVG Export Plug-In . SVG Version: 6.00 Build 0)  -->
<!DOCTYPE svg PUBLIC "-//W3C//DTD SVG 1.1//EN" "http://www.w3.org/Graphics/SVG/1.1/DTD/svg11.dtd">
<svg version="1.1" xmlns="http://www.w3.org/2000/svg" xmlns:xlink="http://www.w3.org/1999/xlink" x="0px" y="0px" width="360px"
	 height="360px" viewBox="0 0 360 360" enable-background="new 0 0 360 360" xml:space="preserve">
<g id="brown_background_for_context" display="none">
	<rect x="-1210.979" y="-45.203" display="inline" fill="#3B3234" width="2375.952" height="1245.126"/>
</g>
<g id="white_imagery__x2B__text">
</g>
<g id="Donations-Dollar_sign_copy">
</g>
<g id="Donations-Banknote">
</g>
<g id="Education-Brain">
</g>
<g id="Education-Book">
</g>
<g id="Social_Media-Connected_copy">
</g>
<g id="Social_Media-Wifi_copy">
</g>
<g id="Social_Media-Hashtag_copy">
</g>
<g id="Legislators-Capitol_Building">
</g>
<g id="Legislators-Gavel">
</g>
<g id="Community-Pin">
</g>
<g id="Community-Pin_copy">
</g>
<g id="Community-Houses_1_">
</g>
<g id="At_Home-Trowel">
</g>
<g id="At_Home-House">
	<g>
		<g>
			<circle fill="#FFCE01" cx="181.162" cy="184.166" r="119.116"/>
		</g>
		<g>
			<circle fill="#FFFFFF" cx="133.042" cy="113.936" r="11.026"/>
			<g>
				<path fill="#FFFFFF" d="M150.338,160.273c0,5.504-4.504,10.008-10.008,10.008h-15.571c-5.504,0-10.008-4.503-10.008-10.008
					V137.29c0-5.504,4.504-10.008,10.008-10.008h15.571c5.504,0,10.008,4.503,10.008,10.008V160.273z"/>
			</g>
			<g>
				<path fill="#FFFFFF" d="M144.067,190.657c0,5.504-4.504,10.008-10.008,10.008h-2.036c-5.504,0-10.008-4.504-10.008-10.008
					v-22.984c0-5.504,4.504-10.008,10.008-10.008h2.036c5.504,0,10.008,4.503,10.008,10.008V190.657z"/>
			</g>
			<circle fill="#FFFFFF" cx="230.275" cy="113.936" r="11.025"/>
			<g>
				<path fill="#FFFFFF" d="M247.572,160.273c0,5.504-4.504,10.008-10.008,10.008h-15.572c-5.504,0-10.008-4.503-10.008-10.008
					V137.29c0-5.504,4.504-10.008,10.008-10.008h15.572c5.504,0,10.008,4.503,10.008,10.008V160.273z"/>
			</g>
			<g>
				<path fill="#FFFFFF" d="M241.301,190.657c0,5.504-4.504,10.008-10.008,10.008h-2.035c-5.504,0-10.008-4.504-10.008-10.008
					v-22.984c0-5.504,4.504-10.008,10.008-10.008h2.035c5.504,0,10.008,4.503,10.008,10.008V190.657z"/>
			</g>
			<circle fill="#FFFFFF" cx="181.278" cy="108.48" r="12.66"/>
			<g>
				<path fill="#FFFFFF" d="M201.14,163.171c0,5.504-4.504,10.008-10.008,10.008h-20.849c-5.504,0-10.008-4.503-10.008-10.008
					v-29.359c0-5.504,4.504-10.008,10.008-10.008h20.849c5.504,0,10.008,4.503,10.008,10.008V163.171z"/>
			</g>
			<g>
				<path fill="#FFFFFF" d="M193.938,198.059c0,5.504-4.504,10.008-10.008,10.008h-5.305c-5.504,0-10.008-4.504-10.008-10.008V168.7
					c0-5.504,4.504-10.008,10.008-10.008h5.305c5.504,0,10.008,4.503,10.008,10.008V198.059z"/>
			</g>
			<rect x="121.374" y="150.412" fill="#FFCE01" width="0.642" height="21.873"/>
			<rect x="144.067" y="150.412" fill="#FFCE01" width="0.642" height="22.766"/>
			<rect x="132.72" y="170.28" fill="#FFCE01" width="0.642" height="32.794"/>
			<rect x="218.607" y="150.412" fill="#FFCE01" width="0.642" height="21.873"/>
			<rect x="241.301" y="150.412" fill="#FFCE01" width="0.64" height="22.766"/>
			<rect x="229.953" y="170.28" fill="#FFCE01" width="0.641" height="32.794"/>
			<rect x="167.885" y="148.569" fill="#FFCE01" width="0.732" height="25"/>
			<rect x="193.993" y="148.569" fill="#FFCE01" width="0.733" height="26.021"/>
			<rect x="181.023" y="173.178" fill="#FFCE01" width="0.732" height="35.587"/>
		</g>
		<g>
			<rect x="67.845" y="216.238" fill="none" width="226.633" height="80.098"/>
			<path fill="#FFFFFF" d="M138.966,220.188c0-0.98,0.756-1.764,1.792-1.764s1.792,0.783,1.792,1.764c0,1.036-0.756,1.82-1.792,1.82
				S138.966,221.224,138.966,220.188z M139.442,224.64h2.632v14h-2.632V224.64z"/>
			<path fill="#FFFFFF" d="M158.817,230.604v8.036h-2.632v-7.644c0-2.772-1.428-4.229-3.416-4.229c-1.96,0-3.416,1.456-3.416,4.229
				v7.644h-2.632v-14h2.632v1.96c0.812-1.316,2.296-2.24,4.228-2.24C156.325,224.359,158.817,226.432,158.817,230.604z"/>
			<path fill="#FFFFFF" d="M183.962,224.64l-8.203,19.601h-2.688l2.464-5.713l-5.824-13.888h2.856l4.284,10.92l4.256-10.92H183.962z
				"/>
			<path fill="#FFFFFF" d="M184.719,231.64c0-3.892,2.912-7.224,7.14-7.224c4.229,0,7.141,3.332,7.141,7.224
				s-2.912,7.224-7.141,7.224C187.631,238.863,184.719,235.531,184.719,231.64z M196.282,231.611c0-2.464-1.735-4.563-4.424-4.563
				c-2.632,0-4.452,2.1-4.452,4.563c0,2.492,1.82,4.62,4.452,4.62C194.547,236.231,196.282,234.104,196.282,231.611z"/>
			<path fill="#FFFFFF" d="M214.174,224.64v14h-2.632v-1.96c-0.812,1.316-2.296,2.24-4.228,2.24c-2.744,0-5.236-2.072-5.236-6.244
				v-8.036h2.632v7.644c0,2.772,1.428,4.229,3.416,4.229c1.96,0,3.416-1.456,3.416-4.229v-7.644H214.174z"/>
			<path fill="#FFFFFF" d="M225.01,224.359v3.108c-1.987-0.336-4.031,0.728-4.031,3.752l-0.028-0.112v7.532h-2.632v-14h2.632v2.408
				C221.706,225.619,223.134,224.359,225.01,224.359z"/>
			<path fill="#FFFFFF" d="M110.938,263.64c0-3.892,2.8-7.224,7.14-7.224c1.933,0,3.276,0.531,4.368,1.4v3.051
				c-0.84-0.951-2.352-1.819-4.145-1.819c-2.771,0-4.676,2.044-4.676,4.592c0,2.521,1.904,4.592,4.676,4.592
				c1.793,0,3.305-0.868,4.145-1.819v3.052c-1.092,0.868-2.436,1.399-4.368,1.399C113.738,270.863,110.938,267.531,110.938,263.64z"
				/>
			<path fill="#FFFFFF" d="M125.106,263.64c0-3.892,2.912-7.224,7.14-7.224s7.14,3.332,7.14,7.224s-2.912,7.224-7.14,7.224
				S125.106,267.531,125.106,263.64z M136.671,263.611c0-2.464-1.736-4.563-4.425-4.563c-2.632,0-4.452,2.1-4.452,4.563
				c0,2.492,1.82,4.62,4.452,4.62C134.935,268.231,136.671,266.104,136.671,263.611z"/>
			<path fill="#FFFFFF" d="M163.662,262.492l-0.028,8.147h-2.632v-7.7c0-2.52-1.26-4.144-3.248-4.144
				c-2.016,0-3.275,1.624-3.275,4.228v7.616h-2.632v-7.7c0-2.52-1.288-4.144-3.276-4.144s-3.248,1.624-3.248,4.228l-0.028-0.084v7.7
				h-2.632v-14h2.632v1.904c0.784-1.232,2.185-2.185,4.088-2.185c1.82,0,3.528,0.952,4.425,2.828
				c0.867-1.54,2.436-2.828,4.704-2.828C161.395,256.359,163.662,258.432,163.662,262.492z"/>
			<path fill="#FFFFFF" d="M188.583,262.492l-0.028,8.147h-2.632v-7.7c0-2.52-1.26-4.144-3.248-4.144
				c-2.017,0-3.276,1.624-3.276,4.228v7.616h-2.632v-7.7c0-2.52-1.288-4.144-3.276-4.144c-1.987,0-3.247,1.624-3.247,4.228
				l-0.028-0.084v7.7h-2.632v-14h2.632v1.904c0.784-1.232,2.184-2.185,4.088-2.185c1.82,0,3.528,0.952,4.424,2.828
				c0.868-1.54,2.437-2.828,4.704-2.828C186.314,256.359,188.583,258.432,188.583,262.492z"/>
			<path fill="#FFFFFF" d="M204.402,256.64v14h-2.632v-1.96c-0.812,1.316-2.296,2.24-4.228,2.24c-2.744,0-5.236-2.072-5.236-6.244
				v-8.036h2.632v7.644c0,2.772,1.428,4.229,3.416,4.229c1.96,0,3.416-1.456,3.416-4.229v-7.644H204.402z"/>
			<path fill="#FFFFFF" d="M220.643,262.604v8.036h-2.632v-7.644c0-2.772-1.428-4.229-3.416-4.229c-1.96,0-3.416,1.456-3.416,4.229
				v7.644h-2.632v-14h2.632v1.96c0.812-1.316,2.296-2.24,4.228-2.24C218.15,256.359,220.643,258.432,220.643,262.604z"/>
			<path fill="#FFFFFF" d="M224.591,252.188c0-0.98,0.756-1.764,1.792-1.764s1.792,0.783,1.792,1.764c0,1.036-0.756,1.82-1.792,1.82
				S224.591,253.224,224.591,252.188z M225.066,256.64h2.632v14h-2.632V256.64z"/>
			<path fill="#FFFFFF" d="M238.423,259.16h-2.885v11.479h-2.632V259.16h-1.792v-2.521h1.792v-3.752h2.632v3.752h2.885V259.16z"/>
			<path fill="#FFFFFF" d="M253.318,256.64l-8.204,19.601h-2.688l2.464-5.713l-5.824-13.888h2.856l4.284,10.92l4.256-10.92H253.318z
				"/>
		</g>
	</g>
</g>
</svg>
